<?xml version="1.0" encoding="UTF-8" standalone="no"?>
<!-- Created with Inkscape (http://www.inkscape.org/) -->

<svg
   xmlns:dc="http://purl.org/dc/elements/1.1/"
   xmlns:cc="http://creativecommons.org/ns#"
   xmlns:rdf="http://www.w3.org/1999/02/22-rdf-syntax-ns#"
   xmlns:svg="http://www.w3.org/2000/svg"
   xmlns="http://www.w3.org/2000/svg"
   xmlns:xlink="http://www.w3.org/1999/xlink"
   xmlns:sodipodi="http://sodipodi.sourceforge.net/DTD/sodipodi-0.dtd"
   xmlns:inkscape="http://www.inkscape.org/namespaces/inkscape"
   version="1.0"
   width="96"
   height="96"
   id="svg2408"
   inkscape:version="0.92.3 (2405546, 2018-03-11)"
   sodipodi:docname="0ad.svg"
   inkscape:export-filename="/home/tobias/Desktop/Faenza-Fresh/apps/0AD.png"
   inkscape:export-xdpi="45"
   inkscape:export-ydpi="45">
  <sodipodi:namedview
     pagecolor="#fefefe"
     bordercolor="#666666"
     borderopacity="1"
     objecttolerance="10"
     gridtolerance="10"
     guidetolerance="10"
     inkscape:pageopacity="0"
     inkscape:pageshadow="2"
     inkscape:window-width="638"
     inkscape:window-height="478"
     id="namedview61"
     showgrid="false"
     inkscape:zoom="1.0710284"
     inkscape:cx="-13.410053"
     inkscape:cy="61.577985"
     inkscape:window-x="434"
     inkscape:window-y="87"
     inkscape:window-maximized="0"
     inkscape:current-layer="layer1"
     inkscape:object-paths="true"
     inkscape:object-nodes="true"
     inkscape:snap-smooth-nodes="true"
     inkscape:snap-midpoints="true"
     inkscape:snap-global="false" />
  <defs
     id="defs2410">
    <linearGradient
       id="linearGradient3927">
      <stop
         id="stop3929"
         offset="0"
         style="stop-color:#554321;stop-opacity:0;" />
      <stop
         style="stop-color:#d9a71d;stop-opacity:1;"
         offset="0.46518025"
         id="stop3931" />
      <stop
         id="stop3933"
         offset="1"
         style="stop-color:#7e6931;stop-opacity:0;" />
    </linearGradient>
    <linearGradient
       id="linearGradient3897">
      <stop
         style="stop-color:#ebc04e;stop-opacity:1;"
         offset="0"
         id="stop3899" />
      <stop
         style="stop-color:#bd9d55;stop-opacity:0.60000002;"
         offset="1"
         id="stop3901" />
    </linearGradient>
    <linearGradient
       id="linearGradient3889">
      <stop
         style="stop-color:#554521;stop-opacity:0;"
         offset="0"
         id="stop3891" />
      <stop
         id="stop3923"
         offset="0.5"
         style="stop-color:#c0a74b;stop-opacity:1;" />
      <stop
         style="stop-color:#7e6931;stop-opacity:0;"
         offset="1"
         id="stop3893" />
    </linearGradient>
    <linearGradient
       id="linearGradient3869">
      <stop
         style="stop-color:#715a2c;stop-opacity:1;"
         offset="0"
         id="stop3871" />
      <stop
         style="stop-color:#604c25;stop-opacity:1;"
         offset="1"
         id="stop3873" />
    </linearGradient>
    <linearGradient
       id="linearGradient3861">
      <stop
         style="stop-color:#c8ae71;stop-opacity:1;"
         offset="0"
         id="stop3863" />
      <stop
         style="stop-color:#a78841;stop-opacity:1;"
         offset="1"
         id="stop3865" />
    </linearGradient>
    <linearGradient
       id="linearGradient3855">
      <stop
         offset="0"
         style="stop-color:#5d4b2e;stop-opacity:1;"
         id="stop3857" />
      <stop
         offset="1"
         style="stop-color:#846e41;stop-opacity:1;"
         id="stop3859" />
    </linearGradient>
    <linearGradient
       id="linearGradient3847">
      <stop
         style="stop-color:#6e562a;stop-opacity:1;"
         offset="0"
         id="stop3849" />
      <stop
         style="stop-color:#a3883f;stop-opacity:1;"
         offset="1"
         id="stop3851" />
    </linearGradient>
    <linearGradient
       id="linearGradient4085">
      <stop
         id="stop4087"
         style="stop-color:#782121;stop-opacity:1"
         offset="0" />
      <stop
         id="stop4089"
         style="stop-color:#782121;stop-opacity:0"
         offset="1" />
    </linearGradient>
    <linearGradient
       id="linearGradient3694">
      <stop
         id="stop3696"
         style="stop-color:#e6e6e6;stop-opacity:1"
         offset="0" />
      <stop
         id="stop3698"
         style="stop-color:#f5f5f5;stop-opacity:1"
         offset="1" />
    </linearGradient>
    <linearGradient
       id="linearGradient3688">
      <stop
         id="stop3690"
         style="stop-color:#a5a5a5;stop-opacity:1;"
         offset="0" />
      <stop
         id="stop3692"
         style="stop-color:#cccccc;stop-opacity:1;"
         offset="1" />
    </linearGradient>
    <linearGradient
       x1="45.447727"
       y1="92.539597"
       x2="45.447727"
       y2="7.0165396"
       id="ButtonShadow"
       gradientUnits="userSpaceOnUse"
       gradientTransform="scale(1.0058652,0.994169)">
      <stop
         id="stop3750"
         style="stop-color:#000000;stop-opacity:1"
         offset="0" />
      <stop
         id="stop3752"
         style="stop-color:#000000;stop-opacity:0.58823532"
         offset="1" />
    </linearGradient>
    <linearGradient
       id="linearGradient3737">
      <stop
         id="stop3739"
         style="stop-color:#fefefe;stop-opacity:1"
         offset="0" />
      <stop
         id="stop3741"
         style="stop-color:#fefefe;stop-opacity:0"
         offset="1" />
    </linearGradient>
    <filter
       color-interpolation-filters="sRGB"
       id="filter3174">
      <feGaussianBlur
         id="feGaussianBlur3176"
         stdDeviation="1.71" />
    </filter>
    <linearGradient
       x1="36.357143"
       y1="6"
       x2="36.357143"
       y2="63.893143"
       id="linearGradient3188"
       xlink:href="#linearGradient3737"
       gradientUnits="userSpaceOnUse"
       gradientTransform="translate(-81.230339,20.541005)" />
    <filter
       x="-0.192"
       y="-0.192"
       width="1.3839999"
       height="1.3839999"
       color-interpolation-filters="sRGB"
       id="filter3794">
      <feGaussianBlur
         id="feGaussianBlur3796"
         stdDeviation="5.28" />
    </filter>
    <linearGradient
       x1="48"
       y1="20.220806"
       x2="48"
       y2="138.66119"
       id="linearGradient3613"
       xlink:href="#linearGradient3737"
       gradientUnits="userSpaceOnUse" />
    <radialGradient
       cx="48"
       cy="90.171875"
       r="42"
       fx="48"
       fy="90.171875"
       id="radialGradient3619"
       xlink:href="#linearGradient3737"
       gradientUnits="userSpaceOnUse"
       gradientTransform="matrix(1.1573129,0,0,0.99590774,28.86258,2.0644961)" />
    <clipPath
       id="clipPath3613">
      <rect
         width="84"
         height="84"
         rx="6"
         ry="6"
         x="6"
         y="6"
         id="rect3615"
         style="fill:#fefefe;fill-opacity:1;fill-rule:nonzero;stroke:none" />
    </clipPath>
    <linearGradient
       x1="48"
       y1="90"
       x2="48"
       y2="5.9877172"
       id="linearGradient3617"
       xlink:href="#linearGradient3855"
       gradientUnits="userSpaceOnUse"
       gradientTransform="translate(28.944144,-33.612554)" />
    <linearGradient
       x1="45.447727"
       y1="92.539597"
       x2="45.447727"
       y2="7.0165396"
       id="ButtonShadow-0"
       gradientUnits="userSpaceOnUse"
       gradientTransform="matrix(1.0058652,0,0,0.994169,100,0)">
      <stop
         id="stop3750-8"
         style="stop-color:#000000;stop-opacity:1"
         offset="0" />
      <stop
         id="stop3752-5"
         style="stop-color:#000000;stop-opacity:0.58823532"
         offset="1" />
    </linearGradient>
    <linearGradient
       x1="32.251034"
       y1="6.1317081"
       x2="32.251034"
       y2="90.238609"
       id="linearGradient3780"
       xlink:href="#ButtonShadow-0"
       gradientUnits="userSpaceOnUse"
       gradientTransform="matrix(1.0238095,0,0,1.0119048,-1.1428571,-98.071429)" />
    <linearGradient
       x1="32.251034"
       y1="6.1317081"
       x2="32.251034"
       y2="90.238609"
       id="linearGradient3772"
       xlink:href="#ButtonShadow-0"
       gradientUnits="userSpaceOnUse"
       gradientTransform="matrix(1.0238095,0,0,1.0119048,-1.1428571,-98.071429)" />
    <linearGradient
       x1="32.251034"
       y1="6.1317081"
       x2="32.251034"
       y2="90.238609"
       id="linearGradient3725"
       xlink:href="#ButtonShadow-0"
       gradientUnits="userSpaceOnUse"
       gradientTransform="matrix(1.0238095,0,0,1.0119048,-1.1428571,-98.071429)" />
    <linearGradient
       x1="32.251034"
       y1="6.1317081"
       x2="32.251034"
       y2="90.238609"
       id="linearGradient3721"
       xlink:href="#ButtonShadow-0"
       gradientUnits="userSpaceOnUse"
       gradientTransform="translate(0,-97)" />
    <linearGradient
       x1="32.251034"
       y1="6.1317081"
       x2="32.251034"
       y2="90.238609"
       id="linearGradient3026"
       xlink:href="#ButtonShadow-0"
       gradientUnits="userSpaceOnUse"
       gradientTransform="matrix(1.0238095,0,0,1.0119048,-1.1428571,-98.071429)" />
    <linearGradient
       x1="-73.494293"
       y1="72.699486"
       x2="-50.243786"
       y2="159.47563"
       id="linearGradient4018"
       xlink:href="#linearGradient3694"
       gradientUnits="userSpaceOnUse"
       gradientTransform="matrix(0.59136097,-0.15844727,-0.15844727,-0.59136097,103.35407,108.29989)" />
    <linearGradient
       x1="-73.494293"
       y1="72.699486"
       x2="-50.243786"
       y2="159.47563"
       id="linearGradient4071"
       xlink:href="#linearGradient3694"
       gradientUnits="userSpaceOnUse"
       gradientTransform="matrix(0.59136097,-0.15844727,-0.15844727,-0.59136097,103.35407,109.29989)" />
    <linearGradient
       x1="58"
       y1="19"
       x2="58"
       y2="120"
       id="linearGradient4091"
       xlink:href="#linearGradient4085"
       gradientUnits="userSpaceOnUse" />
    <radialGradient
       inkscape:collect="always"
       xlink:href="#linearGradient3861"
       id="radialGradient3867"
       cx="46.46875"
       cy="49.796875"
       fx="46.46875"
       fy="49.796875"
       r="37.78125"
       gradientTransform="matrix(1,0,0,1.0004136,0,-0.02059424)"
       gradientUnits="userSpaceOnUse" />
    <radialGradient
       inkscape:collect="always"
       xlink:href="#linearGradient3869"
       id="radialGradient3875"
       cx="66.710594"
       cy="34.328358"
       fx="66.710594"
       fy="34.328358"
       r="37.78125"
       gradientTransform="matrix(1,0,0,1.0004136,0,-0.01976711)"
       gradientUnits="userSpaceOnUse" />
    <radialGradient
       inkscape:collect="always"
       xlink:href="#linearGradient3847"
       id="radialGradient3879"
       gradientUnits="userSpaceOnUse"
       gradientTransform="matrix(2.058387,0,0,2.0592384,-27.054647,-76.385293)"
       cx="25.562149"
       cy="72.12252"
       fx="25.562149"
       fy="72.12252"
       r="37.78125" />
    <radialGradient
       inkscape:collect="always"
       xlink:href="#linearGradient3869"
       id="radialGradient3909"
       gradientUnits="userSpaceOnUse"
       gradientTransform="matrix(1,0,0,1.0004136,0,-0.01976711)"
       cx="66.710594"
       cy="34.328358"
       fx="66.710594"
       fy="34.328358"
       r="37.78125" />
    <radialGradient
       inkscape:collect="always"
       xlink:href="#linearGradient3861"
       id="radialGradient3916"
       gradientUnits="userSpaceOnUse"
       gradientTransform="matrix(1,0,0,1.0004136,1,-1.0205942)"
       cx="46.46875"
       cy="49.796875"
       fx="46.46875"
       fy="49.796875"
       r="37.78125" />
    <linearGradient
       inkscape:collect="always"
       xlink:href="#linearGradient3927"
       id="linearGradient3925"
       gradientUnits="userSpaceOnUse"
       x1="-1.48998"
       y1="55.328175"
       x2="74.891502"
       y2="46.45311" />
  </defs>
  <metadata
     id="metadata2413">
    <rdf:RDF>
      <cc:Work
         rdf:about="">
        <dc:format>image/svg+xml</dc:format>
        <dc:type
           rdf:resource="http://purl.org/dc/dcmitype/StillImage" />
        <dc:title />
      </cc:Work>
    </rdf:RDF>
  </metadata>
  <g
     id="layer2"
     style="display:none">
    <rect
       width="86"
       height="85"
       rx="6"
       ry="6"
       x="5"
       y="7"
       id="rect3745"
       style="opacity:0.9;fill:url(#ButtonShadow);fill-opacity:1;fill-rule:nonzero;stroke:none;filter:url(#filter3174)" />
  </g>
  <g
     id="layer3">
    <path
       d="m 12,-95.03125 c -5.5110903,0 -10.03125,4.52016 -10.03125,10.03125 l 0,71 c 0,5.5110902 4.5201598,10.03125 10.03125,10.03125 l 72,0 c 5.51109,0 10.03125,-4.5201597 10.03125,-10.03125 l 0,-71 c 0,-5.51109 -4.52016,-10.03125 -10.03125,-10.03125 l -72,0 z"
       transform="scale(1,-1)"
       id="path3786"
       style="opacity:0.07999998;fill:url(#linearGradient3026);fill-opacity:1;fill-rule:nonzero;stroke:none;display:inline" />
    <path
       d="m 12,-94.03125 c -4.971633,0 -9.03125,4.059617 -9.03125,9.03125 l 0,71 c 0,4.9716329 4.0596171,9.03125 9.03125,9.03125 l 72,0 c 4.971633,0 9.03125,-4.059617 9.03125,-9.03125 l 0,-71 c 0,-4.971633 -4.059617,-9.03125 -9.03125,-9.03125 l -72,0 z"
       transform="scale(1,-1)"
       id="path3778"
       style="opacity:0.1;fill:url(#linearGradient3780);fill-opacity:1;fill-rule:nonzero;stroke:none;display:inline" />
    <path
       d="m 12,-93 c -4.4091333,0 -8,3.590867 -8,8 l 0,71 c 0,4.4091333 3.5908667,8 8,8 l 72,0 c 4.409133,0 8,-3.5908667 8,-8 l 0,-71 c 0,-4.409133 -3.590867,-8 -8,-8 l -72,0 z"
       transform="scale(1,-1)"
       id="path3770"
       style="opacity:0.2;fill:url(#linearGradient3772);fill-opacity:1;fill-rule:nonzero;stroke:none;display:inline" />
    <rect
       width="86"
       height="85"
       rx="7"
       ry="7"
       x="5"
       y="-92"
       transform="scale(1,-1)"
       id="rect3723"
       style="opacity:0.3;fill:url(#linearGradient3725);fill-opacity:1;fill-rule:nonzero;stroke:none;display:inline" />
    <rect
       width="84"
       height="84"
       rx="6"
       ry="6"
       x="6"
       y="-91"
       transform="scale(1,-1)"
       id="rect3716"
       style="opacity:0.45;fill:url(#linearGradient3721);fill-opacity:1;fill-rule:nonzero;stroke:none;display:inline" />
  </g>
  <g
     id="layer1">
    <rect
       width="84"
       height="84"
       rx="6"
       ry="6"
       x="8.8010435"
       y="8.8010454"
       id="rect2419"
       style="fill:#445500;fill-opacity:1;fill-rule:nonzero;stroke:none" />
    <path
       d="m 14.801046,9.734728 c -3.324,0 -5.9999998,2.676 -5.9999998,6 v 2 68.000005 2 c 0,0.33472 0.04135,0.6507 0.09375,0.96875 0.0487,0.29559 0.09704,0.59691 0.1875,0.875 0.0099,0.0304 0.02089,0.0636 0.03125,0.0938 0.09887,0.28777 0.23488,0.54745 0.375,0.8125 0.144592,0.2735 0.315616,0.53561 0.5,0.78125 0.1843838,0.24563 0.3737768,0.47347 0.5937498,0.6875 0.439947,0.42805 0.94291,0.81452 1.5,1.09375 0.278545,0.13961 0.573473,0.24694 0.875,0.34375 -0.256202,-0.10023 -0.486711,-0.23628 -0.71875,-0.375 -0.0074,-0.004 -0.02387,0.004 -0.03125,0 -0.03193,-0.0193 -0.06229,-0.0425 -0.09375,-0.0625 -0.120395,-0.0767 -0.231023,-0.16352 -0.34375,-0.25 -0.106173,-0.0808 -0.213281,-0.16112 -0.3125,-0.25 -0.17793,-0.16144 -0.34746,-0.34539 -0.5,-0.53125 -0.107579,-0.13026 -0.218394,-0.26529 -0.3125,-0.40625 -0.02509,-0.0384 -0.03845,-0.0859 -0.0625,-0.125 -0.06476,-0.10304 -0.130227,-0.20452 -0.1875,-0.3125 -0.101008,-0.19471 -0.205675,-0.41571 -0.28125,-0.625 -0.008,-0.0218 -0.02359,-0.0405 -0.03125,-0.0625 -0.03182,-0.0919 -0.0358,-0.18684 -0.0625,-0.28125 -0.03033,-0.10662 -0.07039,-0.20304 -0.09375,-0.3125 -0.07288,-0.34152 -0.125,-0.69821 -0.125,-1.0625 v -2 -68.000005 -2 c 0,-2.781848 2.2181518,-5 4.9999998,-5 h 2 68 2 c 2.781848,0 5,2.218152 5,5 v 2 68.000005 2 c 0,0.36429 -0.05212,0.72098 -0.125,1.0625 -0.04415,0.20689 -0.08838,0.39765 -0.15625,0.59375 -0.0077,0.022 -0.0233,0.0407 -0.03125,0.0625 -0.06274,0.17373 -0.138383,0.36744 -0.21875,0.53125 -0.04158,0.0828 -0.07904,0.16995 -0.125,0.25 -0.0546,0.0972 -0.126774,0.18835 -0.1875,0.28125 -0.09411,0.14096 -0.204921,0.27599 -0.3125,0.40625 -0.143174,0.17445 -0.303141,0.34699 -0.46875,0.5 -0.01117,0.0102 -0.01998,0.0212 -0.03125,0.0312 -0.138386,0.12555 -0.285091,0.23443 -0.4375,0.34375 -0.102571,0.0731 -0.204318,0.15336 -0.3125,0.21875 -0.0074,0.004 -0.02384,-0.004 -0.03125,0 -0.232039,0.13872 -0.462548,0.27477 -0.71875,0.375 0.301527,-0.0968 0.596455,-0.20414 0.875,-0.34375 0.55709,-0.27923 1.060053,-0.6657 1.5,-1.09375 0.219973,-0.21403 0.409366,-0.44187 0.59375,-0.6875 0.184384,-0.24564 0.355408,-0.50775 0.5,-0.78125 0.14012,-0.26505 0.276135,-0.52473 0.375,-0.8125 0.01041,-0.0308 0.02133,-0.0627 0.03125,-0.0938 0.09046,-0.27809 0.1388,-0.57941 0.1875,-0.875 0.0524,-0.31805 0.09375,-0.63403 0.09375,-0.96875 v -2 -68.000005 -2 c 0,-3.324 -2.676,-6 -6,-6 z"
       inkscape:connector-curvature="0"
       id="rect3728"
       style="opacity:0.35;fill:#eef4d7;fill-opacity:1;fill-rule:nonzero;stroke:none" />
    <path
       d="m 48.4136,91.867364 c -3.324,0 -6,-2.676 -6,-6 v -2 -68 -2 c 0,-0.334721 0.04135,-0.6507 0.09375,-0.96875 0.0487,-0.295596 0.09704,-0.596915 0.1875,-0.875 0.0099,-0.03038 0.02089,-0.0636 0.03125,-0.09375 0.09886,-0.287771 0.23488,-0.547452 0.375,-0.8125 0.144592,-0.273507 0.315616,-0.535615 0.5,-0.78125 0.184384,-0.245635 0.373777,-0.4734718 0.59375,-0.6874998 0.439947,-0.428056 0.94291,-0.814526 1.5,-1.09375 0.278545,-0.139612 0.573473,-0.246947 0.875,-0.34375 -0.256202,0.100222 -0.486711,0.236272 -0.71875,0.375 -0.0074,0.0044 -0.02387,-0.0045 -0.03125,0 -0.03193,0.0193 -0.06229,0.04251 -0.09375,0.0625 -0.120395,0.0767 -0.231022,0.163513 -0.34375,0.25 -0.106173,0.0808 -0.213281,0.161112 -0.3125,0.25 -0.17793,0.161433 -0.347459,0.345388 -0.5,0.53125 -0.107579,0.130255 -0.218394,0.265285 -0.3125,0.4062498 -0.02509,0.03838 -0.03845,0.08587 -0.0625,0.125 -0.06476,0.103032 -0.130227,0.204517 -0.1875,0.3125 -0.101008,0.194706 -0.205675,0.415701 -0.28125,0.625 -0.008,0.02181 -0.02359,0.04055 -0.03125,0.0625 -0.03183,0.09195 -0.0358,0.186831 -0.0625,0.28125 -0.03033,0.106618 -0.07039,0.203031 -0.09375,0.3125 -0.07288,0.341512 -0.125,0.698205 -0.125,1.0625 v 2 68 2 c 0,2.781848 2.218152,5 5,5 h 2 68 2 c 2.78185,0 5,-2.218152 5,-5 v -2 -68 -2 c 0,-0.364295 -0.0521,-0.720988 -0.125,-1.0625 -0.0442,-0.206893 -0.0884,-0.397658 -0.15625,-0.59375 -0.008,-0.02195 -0.0233,-0.04069 -0.0312,-0.0625 -0.0627,-0.173739 -0.13838,-0.367449 -0.21875,-0.53125 -0.0416,-0.0828 -0.079,-0.169954 -0.125,-0.25 -0.0546,-0.09721 -0.12677,-0.18835 -0.1875,-0.28125 -0.0941,-0.1409648 -0.20492,-0.2759948 -0.3125,-0.4062498 -0.14317,-0.17445 -0.30314,-0.346998 -0.46875,-0.5 -0.0112,-0.0102 -0.02,-0.02115 -0.0312,-0.03125 -0.13839,-0.125556 -0.28509,-0.234436 -0.4375,-0.34375 -0.10257,-0.07315 -0.20432,-0.153364 -0.3125,-0.21875 -0.007,-0.0045 -0.0238,0.0044 -0.0312,0 -0.23204,-0.138728 -0.46255,-0.274778 -0.71875,-0.375 0.30153,0.0968 0.59646,0.204138 0.875,0.34375 0.55709,0.279224 1.06005,0.665694 1.5,1.09375 0.21997,0.214028 0.40937,0.4418648 0.59375,0.6874998 0.18438,0.245635 0.35541,0.507743 0.5,0.78125 0.14012,0.265048 0.27614,0.524729 0.375,0.8125 0.0104,0.03078 0.0213,0.06274 0.0312,0.09375 0.0905,0.278085 0.1388,0.579404 0.1875,0.875 0.0524,0.31805 0.0938,0.634029 0.0938,0.96875 v 2 68 2 c 0,3.324 -2.676,6 -6,6 z"
       inkscape:connector-curvature="0"
       id="path3615"
       style="opacity:0.2;fill:url(#radialGradient3619);fill-opacity:1;fill-rule:nonzero;stroke:none" />
    <path
       style="color:#000000;font-style:normal;font-variant:normal;font-weight:normal;font-stretch:normal;font-size:medium;line-height:normal;font-family:Sans;-inkscape-font-specification:Sans;text-indent:0;text-align:start;text-decoration:none;text-decoration-line:none;letter-spacing:normal;word-spacing:normal;text-transform:none;writing-mode:lr-tb;direction:ltr;baseline-shift:baseline;text-anchor:start;display:inline;overflow:visible;visibility:visible;fill:#ddff55;fill-opacity:1;stroke:none;stroke-width:7.04761934;marker:none;enable-background:accumulate"
       d="m 48.203481,17.378818 c -6.89617,0.914401 -13.00756,4.19988 -17.5625,8.96875 4.43521,-4.222076 10.15936,-7.119722 16.5625,-7.96875 v 24.5 h 1 z m 8,0 v 1.15625 c 12.48632,2.091069 22.26052,11.857886 24.34375,24.34375 h 1.15625 c -1.76194,-13.289973 -12.20998,-23.728917 -25.5,-25.5 z m -31.1875,3.28125 c -7.13832,6.878351 -11.59375,16.522623 -11.59375,27.1875 0,20.822197 16.95905,37.8125 37.78125,37.8125 10.66487,0 20.30915,-4.447436 27.1875,-11.59375 -6.7986,6.558618 -16.03018,10.59375 -26.1875,10.59375 -20.8222,0 -37.78125,-16.990303 -37.78125,-37.8125 0,-10.157321 4.04275,-19.388907 10.59375,-26.1875 z m -2.34375,30.21875 c 0.0445,0.332327 0.10093,0.671306 0.15625,1 h 24.375 v 24.34375 c 0.32881,0.05498 0.66756,0.112059 1,0.15625 v -25.5 z m 33.53125,0 v 1 h 24.5 c -0.85629,6.391137 -3.7457,12.102191 -7.96875,16.53125 4.76923,-4.54901 8.04653,-10.648007 8.96875,-17.53125 z"
       id="path3845"
       inkscape:connector-curvature="0" />
    <path
       style="color:#000000;font-style:normal;font-variant:normal;font-weight:normal;font-stretch:normal;font-size:medium;line-height:normal;font-family:Sans;-inkscape-font-specification:Sans;text-indent:0;text-align:start;text-decoration:none;text-decoration-line:none;letter-spacing:normal;word-spacing:normal;text-transform:none;writing-mode:lr-tb;direction:ltr;baseline-shift:baseline;text-anchor:start;display:inline;overflow:visible;visibility:visible;fill:#668000;fill-opacity:1;stroke:none;stroke-width:7.04761934;marker:none;enable-background:accumulate"
       d="m 52.137161,8.1989539 c -20.822197,0 -37.78125,16.9590521 -37.78125,37.7812501 0,20.822197 16.959053,37.8125 37.78125,37.8125 20.822195,0 37.781245,-16.990303 37.781245,-37.8125 0,-20.822198 -16.95905,-37.7812501 -37.781245,-37.7812501 z m -4,8.3125001 v 25.5 h -25.53125 c 1.762798,-13.296489 12.231953,-23.736571 25.53125,-25.5 z m 8,0 c 13.290015,1.771083 23.738065,12.210027 25.499995,25.5 H 56.137161 Z m -33.53125,33.5 h 25.53125 v 25.5 c -13.285213,-1.766024 -23.751876,-12.219105 -25.53125,-25.5 z m 33.53125,0 h 25.499995 c -1.7785,13.27438 -12.22406,23.726312 -25.499995,25.5 z"
       id="path3809"
       inkscape:connector-curvature="0" />
    <path
       style="color:#000000;font-style:normal;font-variant:normal;font-weight:normal;font-stretch:normal;font-size:medium;line-height:normal;font-family:Sans;-inkscape-font-specification:Sans;text-indent:0;text-align:start;text-decoration:none;text-decoration-line:none;letter-spacing:normal;word-spacing:normal;text-transform:none;writing-mode:lr-tb;direction:ltr;baseline-shift:baseline;text-anchor:start;display:inline;overflow:visible;visibility:visible;fill:#aad400;fill-opacity:1;stroke:none;stroke-width:7.04761934;marker:none;enable-background:accumulate"
       d="m 48.394797,10.195137 c -21.754282,0.436283 -39.1881104,22.900215 -34.15625,44.125 3.783195,21.077771 27.782734,34.921397 47.8125,27.468749 C 82.030213,75.660432 93.036262,50.719119 83.801046,31.788887 77.80151,18.306056 63.33868,9.2163056 48.394797,10.195137 Z m -1.125,7.25 c 0,8.833333 0,17.666667 0,26.5 -9.229167,0 -18.458333,0 -27.6875,0 1.165938,-14.286955 13.429074,-26.502428 27.6875,-27.65625 v 1 z m 7.15625,-1 c 13.788695,1.592101 25.380759,13.683274 26.499999,27.5 -9.218749,0 -18.437499,0 -27.656249,0 0,-9.21875 0,-18.4375 0,-27.65625 l 0.990992,0.133918 0.165258,0.02233 z m -33.6875,33.5 c 8.84375,0 17.6875,0 26.53125,0 0,9.21875 0,18.437499 0,27.656249 C 32.980721,76.422899 20.75125,64.224171 19.582297,49.945137 h 1 z m 33.53125,0 c 8.885417,0 17.770833,0 26.656249,0 -1.184892,14.274062 -13.38567,26.471238 -27.656249,27.656249 0,-9.21875 0,-18.437499 0,-27.656249 z"
       id="path3877"
       inkscape:connector-curvature="0" />
    <path
       style="color:#000000;font-style:normal;font-variant:normal;font-weight:normal;font-stretch:normal;font-size:medium;line-height:normal;font-family:Sans;-inkscape-font-specification:Sans;text-indent:0;text-align:start;text-decoration:none;text-decoration-line:none;letter-spacing:normal;word-spacing:normal;text-transform:none;writing-mode:lr-tb;direction:ltr;baseline-shift:baseline;text-anchor:start;display:inline;overflow:visible;visibility:visible;fill:#e5ff80;fill-opacity:1;stroke:none;stroke-width:7.04761934;marker:none;enable-background:accumulate"
       d="M 48.426047,12.128818 C 25.4835,12.366638 8.1229626,38.275203 16.426046,59.753813 c 6.595645,20.09531 32.896697,30.58049 51.343751,19.4375 18.62781,-9.98902 24.546389,-37.54822 10.384356,-53.75677 C 71.050888,16.68727 59.781485,11.355835 48.426047,12.128818 Z m 4.96875,4.09375 c 15.015331,1.165311 27.968863,14.536675 28.625,29.656245 -9.916667,0 -19.833333,0 -29.75,0 0,-9.92708 0,-19.85416 0,-29.781245 l 0.993884,0.110432 0.131116,0.01457 z m -5.125,1 c 0,9.552085 0,19.104165 0,28.656245 -9.927083,0 -19.854168,0 -29.781251,0 0.675921,-15.51388 14.267669,-29.074775 29.781251,-29.749995 v 1 z M 19.582296,49.878813 c 9.5625,0 19.125001,0 28.687501,0 0,9.91667 0,19.83334 0,29.75 -15.520284,-0.68577 -29.087373,-14.20569 -29.781251,-29.75 h 1 z m 33.687501,0 c 9.583333,0 19.166667,0 28.75,0 -0.684997,15.50384 -14.247737,29.06511 -29.75,29.75 0,-9.91666 0,-19.83333 0,-29.75 z"
       id="path3885"
       inkscape:connector-curvature="0" />
    <path
       style="color:#000000;font-style:normal;font-variant:normal;font-weight:normal;font-stretch:normal;font-size:medium;line-height:normal;font-family:Sans;-inkscape-font-specification:Sans;text-indent:0;text-align:start;text-decoration:none;text-decoration-line:none;letter-spacing:normal;word-spacing:normal;text-transform:none;writing-mode:lr-tb;direction:ltr;baseline-shift:baseline;text-anchor:start;display:inline;overflow:visible;visibility:visible;fill:#ccff00;fill-opacity:1;stroke:none;stroke-width:7.04761934;marker:none;enable-background:accumulate"
       d="m 48.488546,13.128818 c -23.792868,0.0047 -40.8600476,29.032518 -29.6875,49.875 8.864349,19.245578 36.929962,26.364007 53.28125,12.15625 16.190816,-12.773313 17.652436,-40.507081 0.96875,-53.53125 -6.722287,-5.835252 -15.672156,-9.115983 -24.5625,-8.5 z m 3.90625,1.96875 c 16.33949,0.792427 30.558872,15.377647 30.65625,31.78125 -10.59375,0 -21.1875,0 -31.78125,0 0,-10.635417 0,-21.270833 0,-31.90625 l 0.993884,0.110432 0.131116,0.01457 z m -3.125,1.03125 c 0,10.25 0,20.5 0,30.75 -10.604167,0 -21.208333,0 -31.8125,0 0.09704,-16.7693 15.040219,-31.678753 31.8125,-31.78125 v 1 z m -30.78125,32.75 c 10.260417,0 20.520833,0 30.78125,0 0,10.59375 0,21.1875 0,31.78125 C 32.482175,80.54687 17.5609,65.652306 17.457296,48.878818 h 1 z m 33.78125,0 c 10.260417,0 20.520833,0 30.78125,0 -0.119064,16.78048 -15.000596,31.662345 -31.78125,31.78125 0,-10.59375 0,-21.1875 0,-31.78125 z"
       id="path3921"
       inkscape:connector-curvature="0" />
    <path
       style="color:#000000;font-style:normal;font-variant:normal;font-weight:normal;font-stretch:normal;font-size:medium;line-height:normal;font-family:Sans;-inkscape-font-specification:Sans;text-indent:0;text-align:start;text-decoration:none;text-decoration-line:none;letter-spacing:normal;word-spacing:normal;text-transform:none;writing-mode:lr-tb;direction:ltr;baseline-shift:baseline;text-anchor:start;display:inline;overflow:visible;visibility:visible;fill:#e5ff80;fill-opacity:1;stroke:none;stroke-width:7.04761934;marker:none;enable-background:accumulate"
       d="m 52.137157,11.933682 c -10.66487,0 -20.30915,4.455435 -27.1875,11.59375 6.7986,-6.551001 16.03018,-10.59375 26.1875,-10.59375 20.8222,0 37.78125,16.959052 37.78125,37.78125 0,10.15732 -4.04275,19.412539 -10.59375,26.21875 7.13832,-6.886349 11.59375,-16.553873 11.59375,-27.21875 0,-20.822198 -16.95905,-37.78125 -37.78125,-37.78125 z m 3,9.3125 v 25.5 h 25.5 c -0.0441,-0.332554 -0.10137,-0.671108 -0.15625,-1 h -24.34375 v -24.34375 c -0.3289,-0.05508 -0.66744,-0.111932 -1,-0.15625 z m -24.5625,7.96875 c -4.77671,4.547169 -8.05467,10.636542 -8.96875,17.53125 h 25.53125 v -1 h -24.53125 c 0.84873,-6.401781 3.73946,-12.103323 7.96875,-16.53125 z m -8.96875,25.53125 c 1.77938,13.280895 12.24604,23.733976 25.53125,25.5 v -1.15625 c -12.48285,-2.08715 -22.27516,-11.865432 -24.375,-24.34375 z m 33.53125,0 v 25.5 c 6.88406,-0.919721 12.98304,-4.198661 17.53125,-8.96875 -4.42826,4.223785 -10.13936,7.114783 -16.53125,7.96875 v -24.5 z"
       id="path3907"
       inkscape:connector-curvature="0" />
  </g>
  <g
     id="layer5" />
</svg>
