<?xml version="1.0" encoding="UTF-8" standalone="no"?>
<svg
   xmlns:dc="http://purl.org/dc/elements/1.1/"
   xmlns:cc="http://creativecommons.org/ns#"
   xmlns:rdf="http://www.w3.org/1999/02/22-rdf-syntax-ns#"
   xmlns:svg="http://www.w3.org/2000/svg"
   xmlns="http://www.w3.org/2000/svg"
   xmlns:xlink="http://www.w3.org/1999/xlink"
   xmlns:sodipodi="http://sodipodi.sourceforge.net/DTD/sodipodi-0.dtd"
   xmlns:inkscape="http://www.inkscape.org/namespaces/inkscape"
   height="96"
   width="96"
   version="1.1"
   id="svg497"
   sodipodi:docname="cs-firewall.svg"
   inkscape:version="0.92.3 (2405546, 2018-03-11)">
  <metadata
     id="metadata501">
    <rdf:RDF>
      <cc:Work
         rdf:about="">
        <dc:format>image/svg+xml</dc:format>
        <dc:type
           rdf:resource="http://purl.org/dc/dcmitype/StillImage" />
      </cc:Work>
    </rdf:RDF>
  </metadata>
  <sodipodi:namedview
     pagecolor="#ffffff"
     bordercolor="#666666"
     borderopacity="1"
     objecttolerance="10"
     gridtolerance="10"
     guidetolerance="10"
     inkscape:pageopacity="0"
     inkscape:pageshadow="2"
     inkscape:window-width="1152"
     inkscape:window-height="802"
     id="namedview499"
     showgrid="false"
     inkscape:zoom="2.4583333"
     inkscape:cx="18.000004"
     inkscape:cy="48"
     inkscape:window-x="-8"
     inkscape:window-y="-8"
     inkscape:window-maximized="1"
     inkscape:current-layer="svg497" />
  <defs
     id="defs85">
    <linearGradient
       inkscape:collect="always"
       id="linearGradient1312">
      <stop
         style="stop-color:#ff6600;stop-opacity:1;"
         offset="0"
         id="stop1308" />
      <stop
         style="stop-color:#ff6600;stop-opacity:0;"
         offset="1"
         id="stop1310" />
    </linearGradient>
    <linearGradient
       id="c">
      <stop
         stop-color="#ad432d"
         offset="0"
         id="stop2" />
      <stop
         stop-color="#ce5b43"
         offset="1"
         id="stop4" />
    </linearGradient>
    <linearGradient
       id="b">
      <stop
         stop-color="#a2351c"
         offset="0"
         id="stop7" />
      <stop
         stop-color="#c14929"
         offset="1"
         id="stop9" />
    </linearGradient>
    <linearGradient
       id="a">
      <stop
         stop-color="#b01e1e"
         offset="0"
         id="stop12" />
      <stop
         stop-color="#bc3d29"
         offset="1"
         id="stop14" />
    </linearGradient>
    <linearGradient
       id="at"
       stop-color="#fff">
      <stop
         offset="0"
         id="stop17" />
      <stop
         stop-opacity="0"
         offset="1"
         id="stop19" />
    </linearGradient>
    <filter
       id="bn"
       height="1.384"
       width="1.384"
       color-interpolation-filters="sRGB"
       y="-.192"
       x="-.192">
      <feGaussianBlur
         stdDeviation="5.28"
         id="feGaussianBlur22" />
    </filter>
    <linearGradient
       id="bl"
       y2="138.66"
       xlink:href="#at"
       gradientUnits="userSpaceOnUse"
       x2="48"
       y1="20.221"
       x1="48" />
    <clipPath
       id="bp">
      <rect
         rx="6"
         ry="6"
         height="84"
         width="84"
         y="6"
         x="6"
         fill="#fff"
         id="rect26" />
    </clipPath>
    <linearGradient
       id="au"
       y2="7.0165"
       gradientUnits="userSpaceOnUse"
       x2="45.448"
       gradientTransform="matrix(1.0059 0 0 .99417 100 0)"
       y1="92.54"
       x1="45.448">
      <stop
         offset="0"
         id="stop29" />
      <stop
         stop-opacity=".58824"
         offset="1"
         id="stop31" />
    </linearGradient>
    <clipPath
       id="bo">
      <rect
         transform="matrix(0,-1,-1,0,0,0)"
         rx="6"
         ry="6"
         height="84"
         width="84"
         y="-90"
         x="-90"
         fill="#f0f"
         id="rect34" />
    </clipPath>
    <linearGradient
       id="bq"
       y2="63.893"
       xlink:href="#at"
       gradientUnits="userSpaceOnUse"
       x2="36.357"
       y1="6"
       x1="36.357" />
    <linearGradient
       id="br"
       y2="41.783"
       xlink:href="#a"
       gradientUnits="userSpaceOnUse"
       x2="55.353"
       y1="54.752"
       x1="61.471" />
    <linearGradient
       id="bs"
       y2="28.106"
       xlink:href="#b"
       gradientUnits="userSpaceOnUse"
       x2="42.061"
       y1="39.743"
       x1="48.135" />
    <linearGradient
       id="bt"
       y2="14.147"
       xlink:href="#b"
       gradientUnits="userSpaceOnUse"
       x2="54.165"
       y1="25.929"
       x1="59.431" />
    <linearGradient
       id="bu"
       y2="13.792"
       xlink:href="#c"
       gradientUnits="userSpaceOnUse"
       x2="30.545"
       y1="26.196"
       x1="33.868" />
    <linearGradient
       id="bv"
       y2="-.083031"
       xlink:href="#c"
       gradientUnits="userSpaceOnUse"
       x2="38.572"
       y1="11.929"
       x1="45.507" />
    <linearGradient
       id="bw"
       y2="6"
       xlink:href="#au"
       gradientUnits="userSpaceOnUse"
       x2="32.251"
       gradientTransform="translate(0,1)"
       y1="90"
       x1="32.251" />
    <linearGradient
       id="bx"
       y2="5.9996"
       xlink:href="#au"
       gradientUnits="userSpaceOnUse"
       x2="32.251"
       gradientTransform="matrix(1.0238 0 0 1.0119 -1.1429 .929)"
       y1="90"
       x1="32.251" />
    <linearGradient
       id="by"
       y2="90.239"
       xlink:href="#au"
       gradientUnits="userSpaceOnUse"
       x2="32.251"
       gradientTransform="matrix(1.0238,0,0,-1.0119,-1.1429,98.071)"
       y1="6.1317"
       x1="32.251" />
    <linearGradient
       id="bz"
       y2="48"
       gradientUnits="userSpaceOnUse"
       x2="90"
       gradientTransform="translate(-96,-96)"
       y1="48"
       x1="6">
      <stop
         stop-color="#bfb179"
         offset="0"
         id="stop46" />
      <stop
         stop-color="#d4c588"
         offset="1"
         id="stop48" />
    </linearGradient>
    <linearGradient
       id="ca"
       y2="-48"
       gradientUnits="userSpaceOnUse"
       x2="-47.358"
       y1="-48"
       x1="-90">
      <stop
         offset="0"
         id="stop51" />
      <stop
         stop-opacity="0"
         offset="1"
         id="stop53" />
    </linearGradient>
    <radialGradient
       id="bm"
       xlink:href="#at"
       gradientUnits="userSpaceOnUse"
       cy="90.172"
       cx="48"
       gradientTransform="matrix(1.1573 0 0 .99591 -7.551 .19713)"
       r="42" />
    <linearGradient
       id="cb"
       y2="48"
       gradientUnits="userSpaceOnUse"
       x2="90"
       gradientTransform="translate(-96,-206)"
       y1="48"
       x1="6">
      <stop
         stop-color="#bfb179"
         offset="0"
         id="stop57" />
      <stop
         stop-color="#d4c588"
         offset="1"
         id="stop59" />
    </linearGradient>
    <linearGradient
       id="cc"
       y2="14.147"
       xlink:href="#b"
       gradientUnits="userSpaceOnUse"
       x2="54.165"
       gradientTransform="translate(-98,70)"
       y1="25.929"
       x1="59.431" />
    <linearGradient
       id="cd"
       y2="14.147"
       xlink:href="#b"
       gradientUnits="userSpaceOnUse"
       x2="54.165"
       gradientTransform="translate(-150,14)"
       y1="25.929"
       x1="59.431" />
    <linearGradient
       id="ce"
       y2="28.106"
       xlink:href="#b"
       gradientUnits="userSpaceOnUse"
       x2="42.061"
       gradientTransform="translate(-110,28)"
       y1="39.743"
       x1="48.135" />
    <linearGradient
       id="cf"
       y2="14.147"
       xlink:href="#b"
       gradientUnits="userSpaceOnUse"
       x2="54.165"
       gradientTransform="translate(-14,42)"
       y1="25.929"
       x1="59.431" />
    <linearGradient
       id="cg"
       y2="14.147"
       xlink:href="#b"
       gradientUnits="userSpaceOnUse"
       x2="54.165"
       gradientTransform="translate(-52,56)"
       y1="25.929"
       x1="59.431" />
    <linearGradient
       id="ch"
       y2="28.106"
       xlink:href="#b"
       gradientUnits="userSpaceOnUse"
       x2="42.061"
       gradientTransform="translate(-46,14)"
       y1="39.743"
       x1="48.135" />
    <linearGradient
       id="ci"
       y2="14.147"
       xlink:href="#b"
       gradientUnits="userSpaceOnUse"
       x2="54.165"
       gradientTransform="translate(-60)"
       y1="25.929"
       x1="59.431" />
    <linearGradient
       id="av"
       y2="28.106"
       xlink:href="#b"
       gradientUnits="userSpaceOnUse"
       x2="42.061"
       gradientTransform="translate(-110,-28)"
       y1="39.743"
       x1="48.135" />
    <linearGradient
       id="aw"
       y2="41.783"
       xlink:href="#a"
       gradientUnits="userSpaceOnUse"
       x2="55.353"
       gradientTransform="translate(26,28)"
       y1="54.752"
       x1="61.471" />
    <linearGradient
       id="ax"
       y2="41.82"
       xlink:href="#a"
       gradientUnits="userSpaceOnUse"
       x2="29.697"
       gradientTransform="translate(38,42)"
       y1="54.081"
       x1="36.776" />
    <linearGradient
       id="ay"
       y2="41.82"
       xlink:href="#a"
       gradientUnits="userSpaceOnUse"
       x2="29.697"
       gradientTransform="translate(-14,42)"
       y1="54.081"
       x1="36.776" />
    <linearGradient
       id="az"
       y2="41.783"
       xlink:href="#a"
       gradientUnits="userSpaceOnUse"
       x2="55.353"
       gradientTransform="translate(-40,14)"
       y1="54.752"
       x1="61.471" />
    <linearGradient
       id="ba"
       y2="41.82"
       xlink:href="#a"
       gradientUnits="userSpaceOnUse"
       x2="29.697"
       gradientTransform="translate(-60,28)"
       y1="54.081"
       x1="36.776" />
    <linearGradient
       id="bb"
       y2="41.82"
       xlink:href="#a"
       gradientUnits="userSpaceOnUse"
       x2="29.697"
       gradientTransform="translate(-14,-42)"
       y1="54.081"
       x1="36.776" />
    <linearGradient
       id="bc"
       y2="41.82"
       xlink:href="#a"
       gradientUnits="userSpaceOnUse"
       x2="29.697"
       gradientTransform="translate(-124,-42)"
       y1="54.081"
       x1="36.776" />
    <linearGradient
       id="bd"
       y2="41.783"
       xlink:href="#a"
       gradientUnits="userSpaceOnUse"
       x2="55.353"
       gradientTransform="translate(-138,-28)"
       y1="54.752"
       x1="61.471" />
    <linearGradient
       id="be"
       y2="41.783"
       xlink:href="#a"
       gradientUnits="userSpaceOnUse"
       x2="55.353"
       gradientTransform="translate(-72,-14)"
       y1="54.752"
       x1="61.471" />
    <linearGradient
       id="bf"
       y2="41.82"
       xlink:href="#a"
       gradientUnits="userSpaceOnUse"
       x2="29.697"
       gradientTransform="translate(38,-14)"
       y1="54.081"
       x1="36.776" />
    <linearGradient
       id="bg"
       y2="41.82"
       xlink:href="#a"
       gradientUnits="userSpaceOnUse"
       x2="29.697"
       y1="54.081"
       x1="36.776" />
    <linearGradient
       id="bh"
       y2="41.82"
       xlink:href="#a"
       gradientUnits="userSpaceOnUse"
       x2="29.697"
       gradientTransform="translate(-124,14)"
       y1="54.081"
       x1="36.776" />
    <linearGradient
       id="bi"
       y2="-.083031"
       xlink:href="#c"
       gradientUnits="userSpaceOnUse"
       x2="38.572"
       gradientTransform="translate(52,84)"
       y1="11.929"
       x1="45.507" />
    <linearGradient
       id="bj"
       y2="13.792"
       xlink:href="#c"
       gradientUnits="userSpaceOnUse"
       x2="30.545"
       gradientTransform="translate(-86,56)"
       y1="26.196"
       x1="33.868" />
    <linearGradient
       id="bk"
       y2="-.083031"
       xlink:href="#c"
       gradientUnits="userSpaceOnUse"
       x2="38.572"
       gradientTransform="translate(40,42)"
       y1="11.929"
       x1="45.507" />
    <linearGradient
       inkscape:collect="always"
       xlink:href="#linearGradient1312"
       id="linearGradient1314"
       x1="6"
       y1="48"
       x2="90"
       y2="48"
       gradientUnits="userSpaceOnUse" />
  </defs>
  <g
     fill="url(#by)"
     id="g93">
    <path
       opacity="0.08"
       d="m12 95.031c-5.5111 0-10.031-4.52-10.031-10.031v-71c0-5.5111 4.5202-10.031 10.031-10.031h72c5.5111 0 10.031 4.5202 10.031 10.031v71c0 5.5111-4.5202 10.031-10.031 10.031h-72z"
       id="path87" />
    <path
       opacity=".1"
       d="m12 94.031c-4.9716 0-9.0312-4.0596-9.0312-9.0312v-71c0-4.972 4.0596-9.0316 9.0312-9.0316h72c4.9716 0 9.0312 4.0596 9.0312 9.0312v71c0 4.9716-4.0596 9.0312-9.0312 9.0312h-72z"
       id="path89" />
    <path
       opacity=".2"
       d="m12 93c-4.4091 0-8-3.591-8-8v-71c0-4.4091 3.5909-8 8-8h72c4.4091 0 8 3.5909 8 8v71c0 4.4091-3.5909 8-8 8h-72z"
       id="path91" />
  </g>
  <rect
     opacity=".3"
     rx="7"
     ry="7"
     height="85"
     width="86"
     y="7"
     x="5"
     fill="url(#bx)"
     id="rect95" />
  <rect
     opacity=".45"
     rx="6"
     ry="6"
     height="84"
     width="84"
     y="7"
     x="6"
     fill="url(#bw)"
     id="rect97" />
  <rect
     transform="matrix(0,-1,-1,0,0,0)"
     rx="6"
     ry="6"
     height="84"
     width="84"
     y="-90"
     x="-90"
     fill="url(#bz)"
     id="rect99"
     style="fill:#ffb380" />
  <g
     clip-path="url(#bo)"
     id="g485"
     transform="translate(-0.0256,-6e-4)"
     style="fill:url(#linearGradient1314);fill-opacity:1">
    <path
       d="m 83.5,83.406 c -1.1574,0 -2.0938,0.93637 -2.0938,2.0938 v 4.5008 c 0,10.923 8.6194,0 8.6194,0 v -6.595 z"
       id="path101"
       inkscape:connector-curvature="0"
       style="opacity:0.5;fill:url(#linearGradient1314);fill-opacity:1" />
    <rect
       rx="1.5"
       ry="1.5"
       height="12"
       width="24"
       y="84"
       x="82"
       id="rect103"
       style="fill:url(#linearGradient1314);fill-opacity:1" />
    <path
       d="m 85.031,84 c 0.42908,0.3739 0.9604,0.64797 1.4688,0.90625 1.0233,-0.03516 1.9699,-0.78397 3,-0.1875 4.832,0.201 0.5,-0.719 0.5,-0.719 h -4.97 z m -1.843,0.03125 c -0.685,0.14 -1.188,0.742 -1.188,1.469 v 1.75 c 0.259,-0.0649 0.497,-0.1032 0.594,-0.0938 -0.36,-0.9824 -0.555,-2.1861 0.5,-2.7812 0.045,-0.07688 0.059,-0.22054 0.094,-0.34375 z"
       id="path105"
       inkscape:connector-curvature="0"
       style="opacity:0.3;fill:url(#linearGradient1314);fill-opacity:1" />
    <path
       d="m 104.5,55.406 v 13.188 h -21 c -1.1574,0 -2.0938,-0.93637 -2.0938,-2.0938 v -9 c 0,-1.1574 0.93637,-2.0938 2.0938,-2.0938 z"
       id="path107"
       inkscape:connector-curvature="0"
       style="opacity:0.5;fill:url(#linearGradient1314);fill-opacity:1" />
    <rect
       transform="scale(-1,1)"
       rx="1.5"
       ry="1.5"
       height="12"
       width="24"
       y="56"
       x="-106"
       id="rect109"
       style="fill:url(#linearGradient1314);fill-opacity:1" />
    <path
       d="m 90.001,56 c 0,0 0.39697,-0.35422 -0.3135,1.313 -1.1061,0.54922 -1.6506,-0.89209 -2.75,-0.59375 -0.9275,-0.03221 -2.0013,-0.95355 -2.75,0.0625 -0.77614,0.07291 -1.4764,0.34296 -1.5938,1.25 -0.07283,0.35636 -0.33049,0.51258 -0.59375,0.53125 V 57.5 c 0,-0.831 0.669,-1.5 1.5,-1.5 h 6.501 z"
       id="path111"
       inkscape:connector-curvature="0"
       style="opacity:0.3;fill:url(#linearGradient1314);fill-opacity:1" />
    <path
       d="M 90.001,68 H 83.5 C 82.669,68 82,67.331 82,66.5 v -3.4688 c 0.06512,0.20664 0.15642,0.40848 0.28125,0.59375 0.23442,0.58765 0.28496,1.0388 0.375,1.625 -0.004,0.52142 0.22256,1.0538 0.6875,1.1875 0.36664,0.22111 1.0092,0.13993 1.5312,0.15625 0.56351,-0.04729 1.2044,-0.19694 1.7188,0.0625 0.83586,5.01e-4 1.6639,-3.66e-4 2.5,0 5.067,0.154 0.907,1.344 0.907,1.344 z"
       id="path113"
       inkscape:connector-curvature="0"
       style="opacity:0.3;fill:url(#linearGradient1314);fill-opacity:1" />
    <path
       d="m 19.5,41.406 c -1.1574,0 -2.0938,0.93637 -2.0938,2.0938 v 9 c 0,1.1574 0.93637,2.0938 2.0938,2.0938 h 21 c 1.1574,0 2.0938,-0.93637 2.0938,-2.0938 v -9 c 0,-1.1574 -0.93637,-2.0938 -2.0938,-2.0938 z"
       id="path115"
       inkscape:connector-curvature="0"
       style="opacity:0.5;fill:url(#linearGradient1314);fill-opacity:1" />
    <rect
       rx="1.5"
       ry="1.5"
       height="12"
       width="24"
       y="42"
       x="18"
       id="rect117"
       style="fill:url(#linearGradient1314);fill-opacity:1" />
    <path
       d="m 19.5,42 c -0.14889,0 -0.30193,0.02246 -0.4375,0.0625 -0.621,0.184 -1.062,0.756 -1.062,1.438 v 0.96875 c 0.21712,-0.46321 0.6086,-0.71409 0.53125,-1.3438 0.696,-0.6017 1.6516,-0.65128 2.5312,-0.65625 0.63712,-0.0082 0.91336,1.0837 1.0938,1.5938 -0.09807,-0.54106 0.25661,-0.95139 0.71875,-0.96875 0.92512,-0.77658 2.0106,-0.25402 3.125,-0.375 0.90374,-0.36661 1.8226,-0.22054 2.625,0.21875 1.051,-0.15974 2.0935,-0.16665 3.1562,-0.0625 0.91209,0.24591 2.0863,-0.74769 2.5312,0.4375 1.1061,0.54922 1.6506,-0.89209 2.75,-0.59375 0.9275,-0.03221 2.0013,-0.95355 2.75,0.0625 0.77614,0.07291 1.4764,0.34296 1.5938,1.25 0.07283,0.35636 0.33049,0.51258 0.59375,0.53125 V 43.5 c 0,-0.831 -0.669,-1.5 -1.5,-1.5 h -20.969 c -0.009,0.002 -0.021,-0.002 -0.031,0 z"
       id="path119"
       inkscape:connector-curvature="0"
       style="opacity:0.3;fill:url(#linearGradient1314);fill-opacity:1" />
    <path
       d="M 18,47.062 V 52.5 c 0,0.831 0.669,1.5 1.5,1.5 h 21 c 0.831,0 1.5,-0.669 1.5,-1.5 v -3.4688 c -0.06512,0.20664 -0.15642,0.40848 -0.28125,0.59375 -0.23442,0.58765 -0.28496,1.0388 -0.375,1.625 0.004,0.52142 -0.22256,1.0538 -0.6875,1.1875 -0.36664,0.22111 -1.0092,0.13993 -1.5312,0.15625 -0.56351,-0.04729 -1.2044,-0.19694 -1.7188,0.0625 -0.83586,5.01e-4 -1.6639,-3.66e-4 -2.5,0 -0.43101,0.13571 -0.95906,0.07256 -1.4375,0.09375 -0.5958,-0.05869 -1.1004,0.1036 -1.6875,0.0625 -0.78848,-0.05152 -0.63444,-0.73136 -1.25,-0.9375 -0.57128,-0.18938 -0.31569,0.86941 -0.65625,0.9375 -0.62851,-0.2777 -0.79688,-0.73863 -1.2188,-1.2812 -0.24491,-0.59158 -0.12514,0.68286 -0.15625,1 -0.09065,0.48052 -0.64157,0.23157 -1.0312,0.28125 -0.79,-0.129 -1.617,-0.045 -2.438,-0.062 -0.499,0.003 -0.941,0.191 -1.156,0.469 -0.506,0.241 -1.242,-0.147 -1.875,-0.094 -0.48698,0.06669 -1.2518,0.22082 -1.625,-0.0625 -0.42377,-0.33032 -0.5477,-0.4792 -0.75,-1 0.01408,-0.48868 0.11403,-0.94281 -0.46875,-1.2188 -0.04549,-0.5147 0.01284,-1.1329 0.53125,-1.2188 0.29732,-0.38364 0.30333,-1.2631 0,-1.4375 -0.33923,-0.25892 -0.84834,-0.41878 -1.2812,-0.625 -0.231,-0.079 -0.343,-0.268 -0.406,-0.5 z"
       id="path121"
       inkscape:connector-curvature="0"
       style="opacity:0.3;fill:url(#linearGradient1314);fill-opacity:1" />
    <path
       d="m 19.5,41.406 c -1.1574,0 -2.0938,0.93637 -2.0938,2.0938 v 9 c 0,1.1574 0.93637,2.0938 2.0938,2.0938 h 21 c 1.1574,0 2.0938,-0.93637 2.0938,-2.0938 v -9 c 0,-1.1574 -0.93637,-2.0938 -2.0938,-2.0938 z"
       transform="translate(26)"
       id="path123"
       inkscape:connector-curvature="0"
       style="opacity:0.5;fill:url(#linearGradient1314);fill-opacity:1" />
    <rect
       rx="1.5"
       ry="1.5"
       height="12"
       width="24"
       y="42"
       x="44"
       id="rect125"
       style="fill:url(#linearGradient1314);fill-opacity:1" />
    <path
       d="M 45.5,42 C 44.669,42 44,42.669 44,43.5 v 2.2188 c 0.17218,0.03194 0.38499,-0.04094 0.6875,-0.25 0.55536,0.07408 1.5362,1.6221 1.3438,0.34375 0.5816,-0.40029 -2.2387,-2.1865 -0.6875,-2.9688 1.3035,0.62761 2.4577,-0.35877 3.7812,-0.125 1.101,-0.014 2.289,-1.164 2.969,0.281 1.48,0.076 2.888,-0.812 4.406,-0.594 1.417,-0.151 2.852,-0.089 4.281,-0.094 0.256,-0.095 0.578,-0.212 0.907,-0.312 H 45.5 Z m 18.344,0 c 0.23784,0.17122 0.40979,0.4492 0.46875,0.875 -0.03849,0.75934 -0.11974,1.3986 0.5,0.5 0.38005,-1.2783 1.4005,-1.8336 2.0625,-0.5 0.30534,0.14673 0.6859,0.14012 1,0.03125 -0.227,-0.538 -0.752,-0.906 -1.375,-0.906 h -2.6562 z"
       id="path127"
       inkscape:connector-curvature="0"
       style="opacity:0.3;fill:url(#linearGradient1314);fill-opacity:1" />
    <path
       d="m 63.156,51.156 c -0.39166,0.24384 -1.0516,0.59047 -1.3125,1.0625 0.25476,0.87774 -0.49968,1.2212 -1.25,1.0312 -0.9898,-0.11438 -1.9582,0.49597 -2.9375,0.09375 -1.9969,-0.0052 -3.9718,0.0057 -5.9688,0 -0.8723,-0.02878 -1.7261,-0.04093 -2.5625,0.1875 -0.94258,0.36229 -1.6573,-0.51494 -2.5,-0.3125 -1.1384,0.43752 -1.0235,-0.83921 -1.2188,-1.5312 -0.35834,0.44614 -0.86227,0.79168 -1.375,1.1562 0.152,0.671 0.753,1.157 1.47,1.157 h 21 c 0.831,0 1.5,-0.669 1.5,-1.5 v -0.625 c -0.63275,0.14683 -0.51223,1.1312 -1.125,1.0938 -0.675,0.14576 -1.4454,0.08574 -2.2188,0.25 -1.0866,-0.0058 -1.2075,-1.2616 -1.5,-2.0625 z"
       id="path129"
       inkscape:connector-curvature="0"
       style="opacity:0.3;fill:url(#linearGradient1314);fill-opacity:1" />
    <path
       d="m 26.5,27.406 c 1.1574,0 2.0938,0.93637 2.0938,2.0938 v 9 c 0,1.1574 -0.93637,2.0938 -2.0938,2.0938 H 6 v -13.188 z"
       id="path131"
       inkscape:connector-curvature="0"
       style="opacity:0.5;fill:url(#linearGradient1314);fill-opacity:1" />
    <rect
       transform="scale(-1,1)"
       rx="1.5"
       ry="1.5"
       height="12"
       width="24"
       y="28"
       x="-28"
       id="rect133"
       style="fill:url(#linearGradient1314);fill-opacity:1" />
    <path
       d="m 26.5,28 c 0.831,0 1.5,0.669 1.5,1.5 v 2.2188 c -0.17218,0.03194 -0.38499,-0.04094 -0.6875,-0.25 -0.55536,0.07408 -1.5362,1.6221 -1.3438,0.34375 -0.5816,-0.40029 2.2387,-2.1865 0.6875,-2.9688 -1.3035,0.62761 -2.4577,-0.35877 -3.7812,-0.125 -1.101,-0.014 -2.289,-1.164 -2.969,0.281 -1.48,0.076 -2.888,-0.812 -4.406,-0.594 -1.417,-0.151 -2.852,-0.089 -4.281,-0.094 -0.256,-0.095 -0.578,-0.212 -0.907,-0.312 H 26.5 Z M 8.156,28 c -0.23784,0.17122 -0.40979,0.4492 -0.46875,0.875 0.03849,0.75934 0.11974,1.3986 -0.5,0.5 C 5.90725,27.97 6.00005,28 6.00005,28 l 2.156,2.5e-4 z"
       id="path135"
       inkscape:connector-curvature="0"
       style="opacity:0.3;fill:url(#linearGradient1314);fill-opacity:1" />
    <path
       d="m 8.844,37.156 c 0.39166,0.24384 1.0516,0.59047 1.3125,1.0625 -0.25476,0.87774 0.49968,1.2212 1.25,1.0312 0.9898,-0.11438 1.9582,0.49597 2.9375,0.09375 1.9969,-0.0052 3.9718,0.0057 5.9688,0 0.8723,-0.02878 1.7261,-0.04093 2.5625,0.1875 0.94258,0.36229 1.6573,-0.51494 2.5,-0.3125 1.1384,0.43752 1.0235,-0.83921 1.2188,-1.5312 0.35834,0.44614 0.86227,0.79168 1.375,1.1562 -0.152,0.671 -0.753,1.157 -1.47,1.157 h -21 c -0.831,0 -1.5,-0.669 -1.5,-1.5 v -0.625 c 0.63275,0.14683 0.51223,1.1312 1.125,1.0938 0.675,0.14576 1.4454,0.08574 2.2188,0.25 1.0866,-0.0058 1.2075,-1.2616 1.5,-2.0625 z"
       id="path137"
       inkscape:connector-curvature="0"
       style="opacity:0.3;fill:url(#linearGradient1314);fill-opacity:1" />
    <path
       d="m 57.5,27.406 c -1.1574,0 -2.0938,0.93637 -2.0938,2.0938 v 9 c 0,1.1574 0.93637,2.0938 2.0938,2.0938 h 21 c 1.1574,0 2.0938,-0.93637 2.0938,-2.0938 v -9 c 0,-1.1574 -0.93637,-2.0938 -2.0938,-2.0938 z"
       id="path139"
       inkscape:connector-curvature="0"
       style="opacity:0.5;fill:url(#linearGradient1314);fill-opacity:1" />
    <rect
       rx="1.5"
       ry="1.5"
       height="12"
       width="24"
       y="28"
       x="56"
       id="rect141"
       style="fill:url(#linearGradient1314);fill-opacity:1" />
    <path
       d="m 57.5,28 c -0.14889,0 -0.30193,0.02246 -0.4375,0.0625 -0.621,0.184 -1.062,0.756 -1.062,1.438 v 0.96875 c 0.21712,-0.46321 0.6086,-0.71409 0.53125,-1.3438 0.696,-0.6017 1.6516,-0.65128 2.5312,-0.65625 0.63712,-0.0082 0.91336,1.0837 1.0938,1.5938 -0.09807,-0.54106 0.25661,-0.95139 0.71875,-0.96875 0.92512,-0.77658 2.0106,-0.25402 3.125,-0.375 0.90374,-0.36661 1.8226,-0.22054 2.625,0.21875 1.051,-0.15974 2.0935,-0.16665 3.1562,-0.0625 0.91209,0.24591 2.0863,-0.74769 2.5312,0.4375 1.1061,0.54922 1.6506,-0.89209 2.75,-0.59375 0.9275,-0.03221 2.0013,-0.95355 2.75,0.0625 0.77614,0.07291 1.4764,0.34296 1.5938,1.25 0.07283,0.35636 0.33049,0.51258 0.59375,0.53125 V 29.5 c 0,-0.831 -0.669,-1.5 -1.5,-1.5 h -20.969 c -0.009,0.002 -0.021,-0.002 -0.031,0 z"
       id="path143"
       inkscape:connector-curvature="0"
       style="opacity:0.3;fill:url(#linearGradient1314);fill-opacity:1" />
    <path
       d="M 56,33.062 V 38.5 c 0,0.831 0.669,1.5 1.5,1.5 h 21 c 0.831,0 1.5,-0.669 1.5,-1.5 v -3.4688 c -0.06512,0.20664 -0.15642,0.40848 -0.28125,0.59375 -0.23442,0.58765 -0.28496,1.0388 -0.375,1.625 0.004,0.52142 -0.22256,1.0538 -0.6875,1.1875 -0.36664,0.22111 -1.0092,0.13993 -1.5312,0.15625 -0.56351,-0.04729 -1.2044,-0.19694 -1.7188,0.0625 -0.83586,5.01e-4 -1.6639,-3.66e-4 -2.5,0 -0.43101,0.13571 -0.95906,0.07256 -1.4375,0.09375 -0.5958,-0.05869 -1.1004,0.1036 -1.6875,0.0625 -0.78848,-0.05152 -0.63444,-0.73136 -1.25,-0.9375 -0.57128,-0.18938 -0.31569,0.86941 -0.65625,0.9375 -0.62851,-0.2777 -0.79688,-0.73863 -1.2188,-1.2812 -0.24491,-0.59158 -0.12514,0.68286 -0.15625,1 -0.09065,0.48052 -0.64157,0.23157 -1.0312,0.28125 -0.79,-0.129 -1.617,-0.045 -2.438,-0.062 -0.499,0.003 -0.941,0.191 -1.156,0.469 -0.506,0.241 -1.242,-0.147 -1.875,-0.094 -0.48698,0.06669 -1.2518,0.22082 -1.625,-0.0625 -0.42377,-0.33032 -0.5477,-0.4792 -0.75,-1 0.01408,-0.48868 0.11403,-0.94281 -0.46875,-1.2188 -0.04549,-0.5147 0.01284,-1.1329 0.53125,-1.2188 0.29732,-0.38364 0.30333,-1.2631 0,-1.4375 -0.33923,-0.25892 -0.84834,-0.41878 -1.2812,-0.625 -0.231,-0.079 -0.343,-0.268 -0.406,-0.5 z"
       id="path145"
       inkscape:connector-curvature="0"
       style="opacity:0.3;fill:url(#linearGradient1314);fill-opacity:1" />
    <path
       d="m 92.5,13.406 v 13.188 h -21 c -1.1574,0 -2.0938,-0.93637 -2.0938,-2.0938 v -9 c 0,-1.1574 0.93637,-2.0938 2.0938,-2.0938 z"
       id="path147"
       inkscape:connector-curvature="0"
       style="opacity:0.5;fill:url(#linearGradient1314);fill-opacity:1" />
    <rect
       transform="scale(-1,1)"
       rx="1.5"
       ry="1.5"
       height="12"
       width="24"
       y="14"
       x="-94"
       id="rect149"
       style="fill:url(#linearGradient1314);fill-opacity:1" />
    <path
       d="m 92.5,14 c 1.6526,0.51399 1.9352,2.2726 0.1562,0.84375 -1.3035,0.62761 -2.4577,-0.35877 -3.7812,-0.125 -1.101,-0.014 -2.289,-1.164 -2.969,0.281 -1.48,0.076 -2.888,-0.812 -4.406,-0.594 -1.417,-0.151 -2.852,-0.089 -4.281,-0.094 -0.256,-0.095 -0.578,-0.212 -0.907,-0.312 5.3959,3.12e-4 10.793,-5.51e-4 16.188,2.5e-4 z m -18.344,0 c -0.23784,0.17122 -0.40979,0.4492 -0.46875,0.875 0.03849,0.75934 0.11974,1.3986 -0.5,0.5 -0.38005,-1.2783 -1.4005,-1.8336 -2.0625,-0.5 -0.30534,0.14673 -0.6859,0.14012 -1,0.03125 0.227,-0.538 0.752,-0.906 1.375,-0.906 h 2.6562 z"
       id="path151"
       inkscape:connector-curvature="0"
       style="opacity:0.3;fill:url(#linearGradient1314);fill-opacity:1" />
    <path
       d="m 74.844,23.156 c 0.39166,0.24384 1.0516,0.59047 1.3125,1.0625 -0.25476,0.87774 0.49968,1.2212 1.25,1.0312 0.9898,-0.11438 1.9582,0.49597 2.9375,0.09375 1.9969,-0.0052 3.9718,0.0057 5.9688,0 0.8723,-0.02878 1.7261,-0.04093 2.5625,0.1875 0.94258,0.36229 2.5,-0.3125 2.5,-0.3125 l 1.1238,0.782 h -21 c -0.831,0 -1.5,-0.669 -1.5,-1.5 v -0.625 c 0.63275,0.14683 0.51223,1.1312 1.125,1.0938 0.675,0.14576 1.4454,0.08574 2.2188,0.25 1.0866,-0.0058 1.2075,-1.2616 1.5,-2.0625 z"
       id="path153"
       inkscape:connector-curvature="0"
       style="opacity:0.3;fill:url(#linearGradient1314);fill-opacity:1" />
    <path
       d="m 104.5,12.594 h -21 c -1.1574,0 -2.0938,-0.93637 -2.0938,-2.0938 v -9 z"
       id="path155"
       inkscape:connector-curvature="0"
       style="opacity:0.5;fill:url(#linearGradient1314);fill-opacity:1" />
    <rect
       transform="scale(-1,1)"
       rx="1.5"
       ry="1.5"
       height="12"
       width="24"
       y="0"
       x="-106"
       id="rect157"
       style="fill:url(#linearGradient1314);fill-opacity:1" />
    <path
       d="M 83.5,12 C 82.669,12 82,11.331 82,10.5 V 7.0312 c 0.06512,0.20664 0.15642,0.40848 0.28125,0.59375 0.23442,0.58765 0.28496,1.0388 0.375,1.625 -0.004,0.52142 0.22256,1.0538 0.6875,1.1875 0.36664,0.22111 1.0092,0.13993 1.5312,0.15625 0.56351,-0.04729 1.2044,-0.19694 1.7188,0.0625 0.83586,5.01e-4 1.6639,-3.66e-4 2.5,0 7.612,-2.6393 0.906,1.344 0.906,1.344 h -6.5 z"
       id="path159"
       inkscape:connector-curvature="0"
       style="opacity:0.3;fill:url(#linearGradient1314);fill-opacity:1" />
    <path
       d="m 5.5,12.594 h 21 c 1.1574,0 2.0938,-0.93637 2.0938,-2.0938 V 6.0001 c 0,-18.585 -23.094,6.5943 -23.094,6.5943 z"
       id="path161"
       inkscape:connector-curvature="0"
       style="opacity:0.5;fill:url(#linearGradient1314);fill-opacity:1" />
    <rect
       rx="1.5"
       ry="1.5"
       height="12"
       width="24"
       y="0"
       x="4"
       id="rect163"
       style="fill:url(#linearGradient1314);fill-opacity:1" />
    <path
       d="M 6,12 H 26.5 C 27.331,12 28,11.331 28,10.5 V 7.0312 c -0.06512,0.20664 -0.15642,0.40848 -0.28125,0.59375 -0.23442,0.58765 -0.28496,1.0388 -0.375,1.625 0.004,0.52142 -0.22256,1.0538 -0.6875,1.1875 -0.36664,0.22111 -1.0092,0.13993 -1.5312,0.15625 -0.56351,-0.04729 -1.2044,-0.19694 -1.7188,0.0625 -0.83586,5.01e-4 -1.6639,-3.66e-4 -2.5,0 -0.43101,0.13571 -0.95906,0.07256 -1.4375,0.09375 -0.5958,-0.05869 -1.1004,0.1036 -1.6875,0.0625 -0.78848,-0.05152 -0.63444,-0.73136 -1.25,-0.9375 -0.57128,-0.18938 -0.31569,0.86941 -0.65625,0.9375 -0.62851,-0.2777 -0.79688,-0.73863 -1.2188,-1.2812 -0.24491,-0.59158 -0.12514,0.68286 -0.15625,1 -0.09065,0.48052 -0.64157,0.23157 -1.0312,0.28125 -0.79,-0.129 -1.617,-0.045 -2.438,-0.062 -0.499,0.003 -0.941,0.191 -1.156,0.469 -0.506,0.241 -1.242,-0.147 -1.875,-0.094 -0.48698,0.06669 -1.2518,0.22082 -1.625,-0.0625 C 5.99955,8.158 5.99955,12 5.99955,12 Z"
       id="path165"
       inkscape:connector-curvature="0"
       style="opacity:0.3;fill:url(#linearGradient1314);fill-opacity:1" />
    <path
       d="m 5.5,55.406 c -1.1574,0 -2.0938,0.93637 -2.0938,2.0938 v 9 c 0,1.1574 0.93637,2.0938 2.0938,2.0938 h 21 c 1.1574,0 2.0938,-0.93637 2.0938,-2.0938 v -9 c 0,-1.1574 -0.93637,-2.0938 -2.0938,-2.0938 z"
       id="path167"
       inkscape:connector-curvature="0"
       style="opacity:0.5;fill:url(#linearGradient1314);fill-opacity:1" />
    <rect
       rx="1.5"
       ry="1.5"
       height="12"
       width="24"
       y="56"
       x="4"
       id="rect169"
       style="fill:url(#linearGradient1314);fill-opacity:1" />
    <path
       d="M 5.5,56 C 4.669,56 4,56.669 4,57.5 v 2.2188 c 0.17218,0.03194 0.38499,-0.04094 0.6875,-0.25 0.55536,0.07408 1.5362,1.6221 1.3438,0.34375 0.5816,-0.40029 -2.2387,-2.1865 -0.6875,-2.9688 1.3035,0.62761 2.4577,-0.35877 3.7812,-0.125 1.101,-0.014 2.289,-1.164 2.969,0.281 1.48,0.076 2.888,-0.812 4.406,-0.594 1.417,-0.151 2.852,-0.089 4.281,-0.094 0.256,-0.095 0.578,-0.212 0.907,-0.312 H 5.5 Z m 18.344,0 c 0.23784,0.17122 0.40979,0.4492 0.46875,0.875 -0.03849,0.75934 -0.11974,1.3986 0.5,0.5 0.38005,-1.2783 1.4005,-1.8336 2.0625,-0.5 0.30534,0.14673 0.6859,0.14012 1,0.03125 -0.227,-0.538 -0.752,-0.906 -1.375,-0.906 h -2.6562 z"
       id="path171"
       inkscape:connector-curvature="0"
       style="opacity:0.3;fill:url(#linearGradient1314);fill-opacity:1" />
    <path
       d="m 23.156,65.156 c -0.39166,0.24384 -1.0516,0.59047 -1.3125,1.0625 0.25476,0.87774 -0.49968,1.2212 -1.25,1.0312 -0.9898,-0.11438 -1.9582,0.49597 -2.9375,0.09375 -1.9969,-0.0052 -3.9718,0.0057 -5.9688,0 -0.8723,-0.02878 -1.7261,-0.04093 -2.5625,0.1875 -0.94258,0.36229 -1.6573,-0.51494 -2.5,-0.3125 -2.3082,-1.6746 -1.1238,0.782 -1.1238,0.782 h 21 c 0.831,0 1.5,-0.669 1.5,-1.5 v -0.625 c -0.63275,0.14683 -0.51223,1.1312 -1.125,1.0938 -0.675,0.14576 -1.4454,0.08574 -2.2188,0.25 -1.0866,-0.0058 -1.2075,-1.2616 -1.5,-2.0625 z"
       id="path173"
       inkscape:connector-curvature="0"
       style="opacity:0.3;fill:url(#linearGradient1314);fill-opacity:1" />
    <path
       d="m 40.5,69.406 c 1.1574,0 2.0938,0.93637 2.0938,2.0938 v 9 c 0,1.1574 -0.93637,2.0938 -2.0938,2.0938 h -21 c -1.1574,0 -2.0938,-0.93637 -2.0938,-2.0938 v -9 c 0,-1.1574 0.93637,-2.0938 2.0938,-2.0938 z"
       id="path175"
       inkscape:connector-curvature="0"
       style="opacity:0.5;fill:url(#linearGradient1314);fill-opacity:1" />
    <rect
       transform="scale(-1,1)"
       rx="1.5"
       ry="1.5"
       height="12"
       width="24"
       y="70"
       x="-42"
       id="rect177"
       style="fill:url(#linearGradient1314);fill-opacity:1" />
    <path
       d="m 40.5,70 c 0.14889,0 0.30193,0.02246 0.4375,0.0625 0.621,0.184 1.062,0.756 1.062,1.438 v 0.96875 c -0.21712,-0.46321 -0.6086,-0.71409 -0.53125,-1.3438 -0.696,-0.6017 -1.6516,-0.65128 -2.5312,-0.65625 -0.63712,-0.0082 -0.91336,1.0837 -1.0938,1.5938 0.09807,-0.54106 -0.25661,-0.95139 -0.71875,-0.96875 -0.92512,-0.77658 -2.0106,-0.25402 -3.125,-0.375 -0.90374,-0.36661 -1.8226,-0.22054 -2.625,0.21875 -1.051,-0.15974 -2.0935,-0.16665 -3.1562,-0.0625 -0.91209,0.24591 -2.0863,-0.74769 -2.5312,0.4375 -1.1061,0.54922 -1.6506,-0.89209 -2.75,-0.59375 -0.9275,-0.03221 -2.0013,-0.95355 -2.75,0.0625 -0.77614,0.07291 -1.4764,0.34296 -1.5938,1.25 -0.07283,0.35636 -0.33049,0.51258 -0.59375,0.53125 V 71.5 c 0,-0.831 0.669,-1.5 1.5,-1.5 h 20.969 c 0.009,0.002 0.021,-0.002 0.031,0 z"
       id="path179"
       inkscape:connector-curvature="0"
       style="opacity:0.3;fill:url(#linearGradient1314);fill-opacity:1" />
    <path
       d="M 42,75.062 V 80.5 c 0,0.831 -0.669,1.5 -1.5,1.5 h -21 C 18.669,82 18,81.331 18,80.5 v -3.4688 c 0.06512,0.20664 0.15642,0.40848 0.28125,0.59375 0.23442,0.58765 0.28496,1.0388 0.375,1.625 -0.004,0.52142 0.22256,1.0538 0.6875,1.1875 0.36664,0.22111 1.0092,0.13993 1.5312,0.15625 0.56351,-0.04729 1.2044,-0.19694 1.7188,0.0625 0.83586,5.01e-4 1.6639,-3.66e-4 2.5,0 0.43101,0.13571 0.95906,0.07256 1.4375,0.09375 0.5958,-0.05869 1.1004,0.1036 1.6875,0.0625 0.78848,-0.05152 0.63444,-0.73136 1.25,-0.9375 0.57128,-0.18938 0.31569,0.86941 0.65625,0.9375 0.62851,-0.2777 0.79688,-0.73863 1.2188,-1.2812 0.24491,-0.59158 0.12514,0.68286 0.15625,1 0.09065,0.48052 0.64157,0.23157 1.0312,0.28125 0.79,-0.129 1.617,-0.045 2.438,-0.062 0.499,0.003 0.941,0.191 1.156,0.469 0.506,0.241 1.242,-0.147 1.875,-0.094 0.48698,0.06669 1.2518,0.22082 1.625,-0.0625 0.42377,-0.33032 0.5477,-0.4792 0.75,-1 -0.01408,-0.48868 -0.11403,-0.94281 0.46875,-1.2188 0.04549,-0.5147 -0.01284,-1.1329 -0.53125,-1.2188 -0.29732,-0.38364 -0.30333,-1.2631 0,-1.4375 0.33923,-0.25892 0.84834,-0.41878 1.2812,-0.625 0.231,-0.079 0.343,-0.268 0.406,-0.5 z"
       id="path181"
       inkscape:connector-curvature="0"
       style="opacity:0.3;fill:url(#linearGradient1314);fill-opacity:1" />
    <path
       d="m 5.5,83.406 c -1.1574,0 -2.0938,2.0938 -2.0938,2.0938 l 25.188,9 v -9 c 0,-1.1574 -0.93637,-2.0938 -2.0938,-2.0938 z"
       id="path183"
       inkscape:connector-curvature="0"
       style="opacity:0.5;fill:url(#linearGradient1314);fill-opacity:1" />
    <rect
       rx="1.5"
       ry="1.5"
       height="12"
       width="24"
       y="84"
       x="4"
       id="rect185"
       style="fill:url(#linearGradient1314);fill-opacity:1" />
    <path
       d="m 5.5,84 c -0.14889,0 -0.30193,0.02246 -0.4375,0.0625 -0.621,0.184 -1.062,0.756 -1.062,1.438 v 0.96875 c 0.21712,-0.46321 0.6086,-0.71409 0.53125,-1.3438 0.696,-0.6017 1.6516,-0.65128 2.5312,-0.65625 0.63712,-0.0082 0.91336,1.0837 1.0938,1.5938 -0.09807,-0.54106 0.25661,-0.95139 0.71875,-0.96875 0.92512,-0.77658 2.0106,-0.25402 3.125,-0.375 0.90374,-0.36661 1.8226,-0.22054 2.625,0.21875 1.051,-0.15974 2.0935,-0.16665 3.1562,-0.0625 0.91209,0.24591 2.0863,-0.74769 2.5312,0.4375 1.1061,0.54922 1.6506,-0.89209 2.75,-0.59375 0.9275,-0.03221 2.0013,-0.95355 2.75,0.0625 0.77614,0.07291 1.4764,0.34296 1.5938,1.25 0.07283,0.35636 0.33049,0.51258 0.59375,0.53125 V 85.5 c 0,-0.831 -0.669,-1.5 -1.5,-1.5 h -20.969 c -0.009,0.002 -0.021,-0.002 -0.031,0 z"
       id="path187"
       inkscape:connector-curvature="0"
       style="opacity:0.3;fill:url(#linearGradient1314);fill-opacity:1" />
    <path
       d="m 57.5,83.406 c -1.1574,0 -2.0938,0.93637 -2.0938,2.0938 v 9 h 25.188 v -9 c 0,-1.1574 -0.93637,-2.0938 -2.0938,-2.0938 z"
       id="path189"
       inkscape:connector-curvature="0"
       style="opacity:0.5;fill:url(#linearGradient1314);fill-opacity:1" />
    <rect
       rx="1.5"
       ry="1.5"
       height="12"
       width="24"
       y="84"
       x="56"
       id="rect191"
       style="fill:url(#linearGradient1314);fill-opacity:1" />
    <path
       d="m 57.5,84 c -0.14889,0 -0.30193,0.02246 -0.4375,0.0625 -0.621,0.184 -1.062,0.756 -1.062,1.438 v 0.96875 c 0.21712,-0.46321 0.6086,-0.71409 0.53125,-1.3438 0.696,-0.6017 1.6516,-0.65128 2.5312,-0.65625 0.63712,-0.0082 0.91336,1.0837 1.0938,1.5938 -0.09807,-0.54106 0.25661,-0.95139 0.71875,-0.96875 0.92512,-0.77658 2.0106,-0.25402 3.125,-0.375 0.90374,-0.36661 1.8226,-0.22054 2.625,0.21875 1.051,-0.15974 2.0935,-0.16665 3.1562,-0.0625 0.91209,0.24591 2.0863,-0.74769 2.5312,0.4375 1.1061,0.54922 1.6506,-0.89209 2.75,-0.59375 0.9275,-0.03221 2.0013,-0.95355 2.75,0.0625 0.77614,0.07291 1.4764,0.34296 1.5938,1.25 0.07283,0.35636 0.33049,0.51258 0.59375,0.53125 V 85.5 c 0,-0.831 -0.669,-1.5 -1.5,-1.5 h -20.969 c -0.009,0.002 -0.021,-0.002 -0.031,0 z"
       id="path193"
       inkscape:connector-curvature="0"
       style="opacity:0.3;fill:url(#linearGradient1314);fill-opacity:1" />
    <path
       d="m 56,89.062 v 0.94368 c 0,0 5.2087,10.355 1.6872,0.18222 -0.33923,-0.25892 -0.84834,-0.41878 -1.2812,-0.625 -0.231,-0.079 -0.343,-0.268 -0.406,-0.5 z"
       id="path195"
       inkscape:connector-curvature="0"
       style="opacity:0.3;fill:url(#linearGradient1314);fill-opacity:1" />
    <path
       d="m 71.5,69.406 c -1.1574,0 -2.0938,0.93637 -2.0938,2.0938 v 9 c 0,1.1574 0.93637,2.0938 2.0938,2.0938 h 21 v -13.188 z"
       id="path197"
       inkscape:connector-curvature="0"
       style="opacity:0.5;fill:url(#linearGradient1314);fill-opacity:1" />
    <rect
       rx="1.5"
       ry="1.5"
       height="12"
       width="24"
       y="70"
       x="70"
       id="rect199"
       style="fill:url(#linearGradient1314);fill-opacity:1" />
    <path
       d="M 71.5,70 C 70.669,70 70,70.669 70,71.5 v 2.2188 c 0.17218,0.03194 0.38499,-0.04094 0.6875,-0.25 0.55536,0.07408 1.5362,1.6221 1.3438,0.34375 0.5816,-0.40029 -2.2387,-2.1865 -0.6875,-2.9688 1.3035,0.62761 2.4577,-0.35877 3.7812,-0.125 1.101,-0.014 2.289,-1.164 2.969,0.281 1.48,0.076 2.888,-0.812 4.406,-0.594 1.417,-0.151 2.852,-0.089 4.281,-0.094 0.256,-0.095 0.578,-0.212 0.907,-0.312 H 71.5 Z m 18.344,0 c 0.23784,0.17122 0.40979,0.4492 0.46875,0.875 -0.03849,0.75934 -0.11974,1.3986 0.5,0.5 0.38005,-1.2783 1.4005,-1.8336 2.0625,-0.5 0.30534,0.14673 0.6859,0.14012 1,0.03125 -0.227,-0.538 -0.752,-0.906 -1.375,-0.906 h -2.6562 z"
       id="path201"
       inkscape:connector-curvature="0"
       style="opacity:0.3;fill:url(#linearGradient1314);fill-opacity:1" />
    <path
       d="m 89.156,79.156 c -0.39166,0.24384 -1.0516,0.59047 -1.3125,1.0625 0.25476,0.87774 -0.49968,1.2212 -1.25,1.0312 -0.9898,-0.11438 -1.9582,0.49597 -2.9375,0.09375 -1.9969,-0.0052 -3.9718,0.0057 -5.9688,0 -0.8723,-0.02878 -1.7261,-0.04093 -2.5625,0.1875 -0.94258,0.36229 -1.6573,-0.51494 -2.5,-0.3125 -1.1384,0.43752 -1.0235,-0.83921 -1.2188,-1.5312 -0.35834,0.44614 -0.86227,0.79168 -1.375,1.1562 0.152,0.671 0.753,1.157 1.47,1.157 h 18.5 c 0,0 0.2527,0.75627 -0.8433,-2.8432 z"
       id="path203"
       inkscape:connector-curvature="0"
       style="opacity:0.3;fill:url(#linearGradient1314);fill-opacity:1" />
    <path
       d="m 35.515,45.977 c -0.38045,-0.07576 -0.6432,0.3814 -1.0251,0.33321 0.07688,0.36723 0.58595,0.24373 0.87456,0.29111 0.29479,0.26387 0.7368,0.04317 1.0381,0.27639 0.41976,-0.08331 0.64901,0.27128 0.7649,0.60241 -0.10149,0.42228 0.25747,0.69808 0.32194,1.0868 0.10049,0.18201 -0.17558,0.80248 0.13137,0.67046 0.20648,-0.40008 0.08434,-0.89569 0.27262,-1.2988 0.11934,-0.37999 -0.02005,-0.7849 0.0482,-1.1739 0.08501,-0.47372 -0.54977,-0.45469 -0.87247,-0.48506 -0.44133,-0.01801 -0.8107,-0.35084 -1.2739,-0.29413 -0.09336,-0.004 -0.1868,-0.0059 -0.28021,-0.0084 z"
       id="path205"
       inkscape:connector-curvature="0"
       style="opacity:0.3;fill:url(#linearGradient1314);fill-opacity:1" />
    <g
       id="g259"
       style="opacity:0.3;fill:url(#linearGradient1314);fill-opacity:1">
      <path
         d="m 81.565,23.481 a 1.0642,1.0642 0 1 1 -2.1284,0 1.0642,1.0642 0 1 1 2.1284,0 z"
         id="path207"
         inkscape:connector-curvature="0"
         style="fill:url(#linearGradient1314);fill-opacity:1" />
      <path
         d="m 78.144,22.607 a 0.72215,0.72215 0 1 1 -1.4443,0 0.72215,0.72215 0 1 1 1.4443,0 z"
         id="path209"
         inkscape:connector-curvature="0"
         style="fill:url(#linearGradient1314);fill-opacity:1" />
      <path
         d="m 78.676,36.48 a 0.76016,0.76016 0 1 1 -1.5203,0 0.76016,0.76016 0 1 1 1.5203,0 z"
         id="path211"
         inkscape:connector-curvature="0"
         style="fill:url(#linearGradient1314);fill-opacity:1" />
      <path
         d="m 76.168,35.606 a 1.7864,1.7864 0 1 1 -3.5727,0 1.7864,1.7864 0 1 1 3.5727,0 z"
         id="path213"
         inkscape:connector-curvature="0"
         style="fill:url(#linearGradient1314);fill-opacity:1" />
      <path
         d="m 22.425,33.705 a 0.76016,0.87418 0 1 1 -1.5203,0 0.76016,0.87418 0 1 1 1.5203,0 z"
         id="path215"
         inkscape:connector-curvature="0"
         style="fill:url(#linearGradient1314);fill-opacity:1" />
      <path
         d="m 12.342,33.743 a 1.23,0.76016 0 1 1 -2.4599,0 1.23,0.76016 0 1 1 2.4599,0 z"
         id="path217"
         inkscape:connector-curvature="0"
         style="fill:url(#linearGradient1314);fill-opacity:1" />
      <path
         d="m 15.735,36.594 a 1.9004,0.9502 0 0 1 -3.8008,0 1.9004,0.9502 0 1 1 3.8008,0 z"
         id="path219"
         inkscape:connector-curvature="0"
         style="fill:url(#linearGradient1314);fill-opacity:1" />
      <path
         d="m 67.122,50.885 a 1.3683,0.72215 0 1 1 -2.7366,0 1.3683,0.72215 0 1 1 2.7366,0 z"
         id="path221"
         inkscape:connector-curvature="0"
         style="fill:url(#linearGradient1314);fill-opacity:1" />
      <path
         d="m 50.094,45.184 a 0.9882,0.4941 0 1 1 -1.9764,0 0.9882,0.4941 0 1 1 1.9764,0 z"
         id="path223"
         inkscape:connector-curvature="0"
         style="fill:url(#linearGradient1314);fill-opacity:1" />
      <path
         d="m 52.983,47.274 a 1.5203,0.76016 0 1 1 -3.0406,0 1.5203,0.76016 0 1 1 3.0406,0 z"
         id="path225"
         inkscape:connector-curvature="0"
         style="fill:url(#linearGradient1314);fill-opacity:1" />
      <path
         d="m 35.575,48.452 a 1.14025,0.570185 0 0 1 -2.2805,0 1.14025,0.570185 0 1 1 2.2805,0 z"
         id="path227"
         inkscape:connector-curvature="0"
         style="fill:url(#linearGradient1314);fill-opacity:1" />
      <path
         d="m 23.483,47.236 a 1.78345,1.1022309 0 0 1 -3.5669,0 1.78345,1.1022309 0 1 1 3.5669,0 z"
         id="path229"
         inkscape:connector-curvature="0"
         style="fill:url(#linearGradient1314);fill-opacity:1" />
      <path
         d="m 23.791,7.7839 a 1.2915,0.79816 0 1 1 -2.5829,0 1.2915,0.79816 0 1 1 2.5829,0 z"
         id="path231"
         inkscape:connector-curvature="0"
         style="fill:url(#linearGradient1314);fill-opacity:1" />
      <path
         d="m 16.115,7.7078 a 1.4443,0.72215 0 0 1 -2.8886,0 1.4443,0.72215 0 1 1 2.8886,0 z"
         id="path233"
         inkscape:connector-curvature="0"
         style="fill:url(#linearGradient1314);fill-opacity:1" />
      <path
         d="m 10.967,9.3802 a 0.92247,0.57012 0 1 1 -1.8449,0 0.92247,0.57012 0 1 1 1.8449,0 z"
         id="path235"
         inkscape:connector-curvature="0"
         style="fill:url(#linearGradient1314);fill-opacity:1" />
      <path
         d="m 9.3499,63.465 a 1.0642,0.53211 0 0 1 -2.1284,0 1.0642,0.53211 0 1 1 2.1284,0 z"
         id="path237"
         inkscape:connector-curvature="0"
         style="fill:url(#linearGradient1314);fill-opacity:1" />
      <path
         d="m 23.033,58.562 a 1.14025,0.570185 0 0 1 -2.2805,0 1.14025,0.570185 0 1 1 2.2805,0 z"
         id="path239"
         inkscape:connector-curvature="0"
         style="fill:url(#linearGradient1314);fill-opacity:1" />
      <path
         d="m 38.236,74.906 a 1.14025,0.570185 0 1 1 -2.2805,0 1.14025,0.570185 0 1 1 2.2805,0 z"
         id="path241"
         inkscape:connector-curvature="0"
         style="fill:url(#linearGradient1314);fill-opacity:1" />
      <path
         d="m 25.541,76.008 a 2.2805,1.1402 0 1 1 -4.5609,0 2.2805,1.1402 0 1 1 4.5609,0 z"
         id="path243"
         inkscape:connector-curvature="0"
         style="fill:url(#linearGradient1314);fill-opacity:1" />
      <path
         d="m 27.697,74.64 a 1.23,0.76016 0 1 1 -2.4599,0 1.23,0.76016 0 1 1 2.4599,0 z"
         id="path245"
         inkscape:connector-curvature="0"
         style="fill:url(#linearGradient1314);fill-opacity:1" />
      <path
         d="m 62.485,91.743 a 1.3683,0.68414 0 0 1 -2.7366,0 1.3683,0.68414 0 1 1 2.7366,0 z"
         id="path247"
         inkscape:connector-curvature="0"
         style="fill:url(#linearGradient1314);fill-opacity:1" />
      <path
         d="m 67.654,87.03 a 1.5964,0.53213 0 0 1 -3.1927,0 1.5964,0.53213 0 1 1 3.1927,0 z"
         id="path249"
         inkscape:connector-curvature="0"
         style="fill:url(#linearGradient1314);fill-opacity:1" />
      <path
         d="m 71.759,88.55 a 0.9122,0.4561 0 1 1 -1.8244,0 0.9122,0.4561 0 1 1 1.8244,0 z"
         id="path251"
         inkscape:connector-curvature="0"
         style="fill:url(#linearGradient1314);fill-opacity:1" />
      <path
         d="m 12.695,86.764 a 0.83617,0.41809 0 1 1 -1.6723,0 0.83617,0.41809 0 1 1 1.6723,0 z"
         id="path253"
         inkscape:connector-curvature="0"
         style="fill:url(#linearGradient1314);fill-opacity:1" />
      <path
         d="m 16.951,88.893 a 1.14025,0.570185 0 0 1 -2.2805,0 1.14025,0.570185 0 1 1 2.2805,0 z"
         id="path255"
         inkscape:connector-curvature="0"
         style="fill:url(#linearGradient1314);fill-opacity:1" />
      <path
         d="m 86.278,72.625 a 1.9384,0.64613 0 0 1 -3.8768,0 1.9384,0.64613 0 1 1 3.8768,0 z"
         id="path257"
         inkscape:connector-curvature="0"
         style="fill:url(#linearGradient1314);fill-opacity:1" />
    </g>
    <g
       id="g273"
       style="opacity:0.1;fill:url(#linearGradient1314);fill-opacity:1">
      <path
         d="m 30.178,45.07 a 1.0642,0.53211 0 1 1 -2.1284,0 1.0642,0.53211 0 1 1 2.1284,0 z"
         id="path261"
         inkscape:connector-curvature="0"
         style="fill:url(#linearGradient1314);fill-opacity:1" />
      <path
         d="m 64.841,45.944 a 1.5583,0.4941 0 1 1 -3.1166,0 1.5583,0.4941 0 1 1 3.1166,0 z"
         id="path263"
         inkscape:connector-curvature="0"
         style="fill:url(#linearGradient1314);fill-opacity:1" />
      <path
         d="m 20.752,37.05 a 1.4443,0.64613 0 0 1 -2.8886,0 1.4443,0.64613 0 1 1 2.8886,0 z"
         id="path265"
         inkscape:connector-curvature="0"
         style="fill:url(#linearGradient1314);fill-opacity:1" />
      <path
         d="m 83.237,16.868 a 1.8624,0.53211 0 0 1 -3.7248,0 1.8624,0.53211 0 1 1 3.7248,0 z"
         id="path267"
         inkscape:connector-curvature="0"
         style="fill:url(#linearGradient1314);fill-opacity:1" />
      <path
         d="m 34.207,76.806 a 0.9502,0.57012 0 1 1 -1.9004,0 0.9502,0.57012 0 1 1 1.9004,0 z"
         id="path269"
         inkscape:connector-curvature="0"
         style="fill:url(#linearGradient1314);fill-opacity:1" />
      <path
         d="m 37.02,77.87 a 0.8742,0.49411 0 1 1 -1.7484,0 0.8742,0.49411 0 1 1 1.7484,0 z"
         id="path271"
         inkscape:connector-curvature="0"
         style="fill:url(#linearGradient1314);fill-opacity:1" />
    </g>
    <path
       d="m 19.5,41.406 c -1.1574,0 -2.0938,0.93637 -2.0938,2.0938 v 9 c 0,1.1574 0.93637,2.0938 2.0938,2.0938 h 21 c 1.1574,0 2.0938,-0.93637 2.0938,-2.0938 v -9 c 0,-1.1574 -0.93637,-2.0938 -2.0938,-2.0938 z"
       transform="translate(12,-14)"
       id="path275"
       inkscape:connector-curvature="0"
       style="opacity:0.5;fill:url(#linearGradient1314);fill-opacity:1" />
    <rect
       rx="1.5"
       ry="1.5"
       height="12"
       width="24"
       y="28"
       x="30"
       id="rect277"
       style="fill:url(#linearGradient1314);fill-opacity:1" />
    <path
       d="m 31.5,28 c -0.78986,0 -1.4382,0.60156 -1.5,1.375 0.49595,-0.26287 1.1986,-0.23748 1.375,-0.09375 -0.06605,-0.89457 0.91623,-1.1897 1.5312,-0.75 0.72997,-0.1202 1.5028,-0.6548 2.0312,0.09375 0.9557,0.08592 1.9032,-0.16836 2.8438,-0.21875 0.70222,0.27893 1.4991,0.12458 2.0938,0.5 -0.39536,0.2309 -0.92376,1.4978 -0.0625,1.4062 0.38541,-0.72225 1.6109,-0.753 1.4375,-1.6875 0.64261,-0.77069 1.6816,-0.0602 2.25,0.4375 0.37549,0.44581 0.77461,0.38455 0.53125,-0.25 0.48123,-0.8993 1.6501,-0.47792 2.4688,-0.5 1.1623,0.11016 2.3817,0.36827 3.5312,0.03125 1.2249,-0.15037 2.2016,0.66839 3.2188,0.9375 0.21756,0.10332 0.49618,0.15264 0.75,0.15625 -0.032,-0.802 -0.69,-1.437 -1.5,-1.437 h -21 z"
       id="path279"
       inkscape:connector-curvature="0"
       style="opacity:0.3;fill:url(#linearGradient1314);fill-opacity:1" />
    <path
       d="m 30,32.656 v 3.625 c 0.25078,-0.26974 0.52319,-0.53156 0.75,-0.8125 -0.944,-0.833 0.427,-1.341 1.125,-1.468 0.343,-0.908 -1.023,-1.042 -1.875,-1.344 z m 24,3.125 c -0.2403,0.2015 -0.45664,0.6699 -0.71875,0.9375 -0.41498,0.9317 -0.39667,2.2292 -1.75,2.3438 -1.2066,0.83329 -2.5108,0.10497 -3.75,-0.1875 -1.2764,0.39639 -2.2934,-0.76032 -3.5,-0.90625 -0.93115,0.13843 -1.5584,1.1061 -2.4688,1.4062 -1.1321,0.51859 -2.3259,-0.31198 -3.5,0.03125 -1.3884,0.36368 -2.8077,0.15449 -4.2188,0.0625 -0.922,0.114 -1.749,-0.736 -2.655,-0.218 -0.195,0.262 -0.447,0.435 -0.719,0.531 0.227,0.138 0.495,0.219 0.781,0.219 h 21 c 0.831,0 1.5,-0.669 1.5,-1.5 v -2.7188 z"
       id="path281"
       inkscape:connector-curvature="0"
       style="opacity:0.3;fill:url(#linearGradient1314);fill-opacity:1" />
    <path
       d="m 19.5,41.406 c -1.1574,0 -2.0938,0.93637 -2.0938,2.0938 v 9 c 0,1.1574 0.93637,2.0938 2.0938,2.0938 h 21 c 1.1574,0 2.0938,-0.93637 2.0938,-2.0938 v -9 c 0,-1.1574 -0.93637,-2.0938 -2.0938,-2.0938 z"
       transform="translate(26,-28)"
       id="path283"
       inkscape:connector-curvature="0"
       style="opacity:0.5;fill:url(#linearGradient1314);fill-opacity:1" />
    <rect
       rx="1.5"
       ry="1.5"
       height="12"
       width="24"
       y="14"
       x="44"
       id="rect285"
       style="fill:url(#linearGradient1314);fill-opacity:1" />
    <path
       d="m 48.281,14 c 0.63601,0.94092 1.8157,1.2641 2.5938,0.25 0.11295,-0.09197 0.24712,-0.16592 0.375,-0.25 h -2.969 z m 5.8438,0 c 1.2013,0.61919 2.6276,0.5759 3.9375,0.8125 1.964,0.0654 3.9499,-0.38518 5.9062,-0.0625 0.93643,0.49398 1.8179,0.7228 2.875,0.84375 0.332,0.306 0.732,0.889 1.156,1.156 v -1.25 c 0,-0.831 -0.669,-1.5 -1.5,-1.5 h -12.375 z m -10.125,2.781 v 1.3125 c 0.68465,0.01896 1.5322,0.49786 1.8438,0.28125 0.104,-1.215 -1.057,-1.264 -1.844,-1.594 z"
       id="path287"
       inkscape:connector-curvature="0"
       style="opacity:0.3;fill:url(#linearGradient1314);fill-opacity:1" />
    <path
       d="M 44,21.531 V 24.5 c 0,0.831 0.669,1.5 1.5,1.5 h 21 C 67.331,26 68,25.331 68,24.5 V 23 c -0.63233,0.24671 -1.1657,1.5606 -1.8125,1.875 -1.0009,0.68391 -2.0449,-0.2579 -3,-0.5625 -0.75684,0.35133 -1.7511,0.79559 -2.7188,0.78125 -0.79424,0.24914 -1.6254,0.20437 -2.4375,0.0625 -0.82971,-0.2488 -1.6619,0.06977 -2.4688,0 -0.94739,-0.49256 -0.89364,-1.7175 -1.2812,-2.5625 -0.15494,1.0117 -1.6061,0.5333 -1.8125,1.625 -0.33941,1.4773 -2.0689,0.54927 -2.375,-0.46875 -0.30903,0.05833 -0.75747,1.7728 -1.7812,1.4062 -1.0924,0.09798 -2.4959,0.15844 -3.1875,-0.875 -0.28,-0.916 -0.363,-2.08 -1.124,-2.75 z"
       id="path289"
       inkscape:connector-curvature="0"
       style="opacity:0.3;fill:url(#linearGradient1314);fill-opacity:1" />
    <path
       d="m 80.594,5.9995 v 4.5003 c 0,1.1574 -0.93637,2.0938 -2.0938,2.0938 h -21 c -1.1574,0 -2.0938,-0.93637 -2.0938,-2.0938 V 5.9993 Z"
       id="path291"
       inkscape:connector-curvature="0"
       style="opacity:0.5;fill:url(#linearGradient1314);fill-opacity:1" />
    <rect
       transform="scale(-1,1)"
       rx="1.5"
       ry="1.5"
       height="12"
       width="24"
       y="0"
       x="-80"
       id="rect293"
       style="fill:url(#linearGradient1314);fill-opacity:1" />
    <path
       d="M 80,5.9995 V 8.281 C 79.749,8.0113 79.477,7.7494 79.25,7.4685 80.194,6.6355 78.823,6.1275 78.125,6.0005 79.222,5.9995 80,5.9995 80,5.9995 Z M 56,7.781 c 0.2403,0.2015 0.45664,0.6699 0.71875,0.9375 0.41498,0.9317 0.39667,2.2292 1.75,2.3438 1.2066,0.83329 2.5108,0.10497 3.75,-0.1875 1.2764,0.39639 2.2934,-0.76032 3.5,-0.90625 0.93115,0.13843 1.5584,1.1061 2.4688,1.4062 1.1321,0.51859 2.3259,-0.31198 3.5,0.03125 1.3884,0.36368 2.8077,0.15449 4.2188,0.0625 0.922,0.114 1.749,-0.736 2.655,-0.218 0.195,0.262 0.447,0.435 0.719,0.531 -0.227,0.138 -0.495,0.219 -0.781,0.219 h -21 c -0.831,0 -1.5,-0.669 -1.5,-1.5 -10e-4,-0.9059 -10e-4,-1.8131 0,-2.719 z"
       id="path295"
       inkscape:connector-curvature="0"
       style="opacity:0.3;fill:url(#linearGradient1314);fill-opacity:1" />
    <path
       d="m 14.5,13.406 c 1.1574,0 2.0938,0.93637 2.0938,2.0938 v 9 c 0,1.1574 -0.93637,2.0938 -2.0938,2.0938 h -21 v -13.188 z"
       id="path297"
       inkscape:connector-curvature="0"
       style="opacity:0.5;fill:url(#linearGradient1314);fill-opacity:1" />
    <rect
       transform="scale(-1,1)"
       rx="1.5"
       ry="1.5"
       height="12"
       width="24"
       y="14"
       x="-16"
       id="rect299"
       style="fill:url(#linearGradient1314);fill-opacity:1" />
    <path
       d="M 11.719,14 C 11.083,14.941 9.9033,15.264 9.1252,14.25 9.0122,14.158 8.8781,14.084 8.7502,14 Z m 4.2812,2.781 v 1.3125 c -0.68465,0.01896 -1.5322,0.49786 -1.8438,0.28125 -0.104,-1.215 1.057,-1.264 1.844,-1.594 z"
       id="path301"
       inkscape:connector-curvature="0"
       style="opacity:0.3;fill:url(#linearGradient1314);fill-opacity:1" />
    <path
       d="M 16,21.531 V 24.5 c 0,0.831 -0.669,1.5 -1.5,1.5 -49.29,0 -7.2601,-2.9851 -6.9687,-1.7812 0.33941,1.4773 2.0689,0.54927 2.375,-0.46875 0.30903,0.05833 0.75747,1.7728 1.7812,1.4062 1.0924,0.09798 2.4959,0.15844 3.1875,-0.875 0.28082,-0.91635 0.36441,-2.0802 1.125,-2.75 z"
       id="path303"
       inkscape:connector-curvature="0"
       style="opacity:0.3;fill:url(#linearGradient1314);fill-opacity:1" />
    <path
       d="m 14.5,41.406 c 1.1574,0 2.0938,0.93637 2.0938,2.0938 v 9 c 0,1.1574 -0.93637,2.0938 -2.0938,2.0938 h -21 v -13.188 z"
       id="path305"
       inkscape:connector-curvature="0"
       style="opacity:0.5;fill:url(#linearGradient1314);fill-opacity:1" />
    <rect
       transform="scale(-1,1)"
       rx="1.5"
       ry="1.5"
       height="12"
       width="24"
       y="42"
       x="-16"
       id="rect307"
       style="fill:url(#linearGradient1314);fill-opacity:1" />
    <path
       d="m 14.5,42 c 0.78986,0 1.4382,0.60156 1.5,1.375 -0.49595,-0.26287 -1.1986,-0.23748 -1.375,-0.09375 0.06605,-0.89457 -0.91623,-1.1897 -1.5312,-0.75 -0.72997,-0.1202 -1.5028,-0.6548 -2.0312,0.09375 -0.9557,0.08592 -1.9032,-0.16836 -2.8438,-0.21875 -0.70222,0.27893 -1.4991,0.12458 -2.0938,0.5 0.39536,0.2309 0.92376,1.4978 0.0625,1.4062 -10.096,-4.4976 -26.352,-2.312 8.3124,-2.312 z"
       id="path309"
       inkscape:connector-curvature="0"
       style="opacity:0.3;fill:url(#linearGradient1314);fill-opacity:1" />
    <path
       d="m 16,46.656 v 3.625 c -0.25078,-0.26974 -0.52319,-0.53156 -0.75,-0.8125 0.944,-0.833 -0.427,-1.341 -1.125,-1.468 -0.343,-0.908 1.023,-1.042 1.875,-1.344 z m -8.3124,6.75 c 1.3884,0.36368 2.8077,0.15449 4.2188,0.0625 0.922,0.114 1.749,-0.736 2.655,-0.218 0.195,0.262 0.447,0.435 0.719,0.531 -0.227,0.138 -0.495,0.219 -0.781,0.219 -30.243,0.27062 -25.23,-5.3238 -6.8118,-0.5945 z"
       id="path311"
       inkscape:connector-curvature="0"
       style="opacity:0.3;fill:url(#linearGradient1314);fill-opacity:1" />
    <path
       d="m -6.5,69.406 v 13.188 h 21 c 1.1574,0 2.0938,-0.93637 2.0938,-2.0938 v -9 c 0,-1.1574 -0.93637,-2.0938 -2.0938,-2.0938 z"
       id="path313"
       inkscape:connector-curvature="0"
       style="opacity:0.5;fill:url(#linearGradient1314);fill-opacity:1" />
    <rect
       rx="1.5"
       ry="1.5"
       height="12"
       width="24"
       y="70"
       x="-8"
       id="rect315"
       style="fill:url(#linearGradient1314);fill-opacity:1" />
    <path
       d="m 2.1248,70 c 0,0 2.6276,0.5759 3.9375,0.8125 1.964,0.0654 3.9499,-0.38518 5.9062,-0.0625 0.93643,0.49398 1.8179,0.7228 2.875,0.84375 0.332,0.306 0.732,0.889 1.156,1.156 v -1.25 c 0,-0.831 -0.669,-1.5 -1.5,-1.5 H 2.1235 Z"
       id="path317"
       inkscape:connector-curvature="0"
       style="opacity:0.3;fill:url(#linearGradient1314);fill-opacity:1" />
    <path
       d="m -6.5,82 h 21 C 15.331,82 16,81.331 16,80.5 V 79 c -0.63233,0.24671 -1.1657,1.5606 -1.8125,1.875 -1.0009,0.68391 -2.0449,-0.2579 -3,-0.5625 -0.75684,0.35133 -1.7511,0.79559 -2.7188,0.78125 -0.79424,0.24914 -1.6254,0.20437 -2.4375,0.0625 -4.2086,-0.724 -12.531,0.844 -12.531,0.844 z"
       id="path319"
       inkscape:connector-curvature="0"
       style="opacity:0.3;fill:url(#linearGradient1314);fill-opacity:1" />
    <path
       d="m 31.5,55.406 c -1.1574,0 -2.0938,0.93637 -2.0938,2.0938 v 9 c 0,1.1574 0.93637,2.0938 2.0938,2.0938 h 21 c 1.1574,0 2.0938,-0.93637 2.0938,-2.0938 v -9 c 0,-1.1574 -0.93637,-2.0938 -2.0938,-2.0938 z"
       id="path321"
       inkscape:connector-curvature="0"
       style="opacity:0.5;fill:url(#linearGradient1314);fill-opacity:1" />
    <rect
       rx="1.5"
       ry="1.5"
       height="12"
       width="24"
       y="56"
       x="30"
       id="rect323"
       style="fill:url(#linearGradient1314);fill-opacity:1" />
    <path
       d="m 34.281,56 c 0.63601,0.94092 1.8157,1.2641 2.5938,0.25 0.11295,-0.09197 0.24712,-0.16592 0.375,-0.25 h -2.969 z m 5.8438,0 c 1.2013,0.61919 2.6276,0.5759 3.9375,0.8125 1.964,0.0654 3.9499,-0.38518 5.9062,-0.0625 0.93643,0.49398 1.8179,0.7228 2.875,0.84375 0.332,0.306 0.732,0.889 1.156,1.156 v -1.25 c 0,-0.831 -0.669,-1.5 -1.5,-1.5 h -12.375 z m -10.125,2.781 v 1.3125 c 0.68465,0.01896 1.5322,0.49786 1.8438,0.28125 0.104,-1.215 -1.057,-1.264 -1.844,-1.594 z"
       id="path325"
       inkscape:connector-curvature="0"
       style="opacity:0.3;fill:url(#linearGradient1314);fill-opacity:1" />
    <path
       d="M 30,63.531 V 66.5 c 0,0.831 0.669,1.5 1.5,1.5 h 21 C 53.331,68 54,67.331 54,66.5 V 65 c -0.63233,0.24671 -1.1657,1.5606 -1.8125,1.875 -1.0009,0.68391 -2.0449,-0.2579 -3,-0.5625 -0.75684,0.35133 -1.7511,0.79559 -2.7188,0.78125 -0.79424,0.24914 -1.6254,0.20437 -2.4375,0.0625 -0.82971,-0.2488 -1.6619,0.06977 -2.4688,0 -0.94739,-0.49256 -0.89364,-1.7175 -1.2812,-2.5625 -0.15494,1.0117 -1.6061,0.5333 -1.8125,1.625 -0.33941,1.4773 -2.0689,0.54927 -2.375,-0.46875 -0.30903,0.05833 -0.75747,1.7728 -1.7812,1.4062 -1.0924,0.09798 -2.4959,0.15844 -3.1875,-0.875 -0.28,-0.916 -0.363,-2.08 -1.124,-2.75 z"
       id="path327"
       inkscape:connector-curvature="0"
       style="opacity:0.3;fill:url(#linearGradient1314);fill-opacity:1" />
    <path
       d="m 78.5,55.406 c 1.1574,0 2.0938,0.93637 2.0938,2.0938 v 9 c 0,1.1574 -0.93637,2.0938 -2.0938,2.0938 h -21 c -1.1574,0 -2.0938,-0.93637 -2.0938,-2.0938 v -9 c 0,-1.1574 0.93637,-2.0938 2.0938,-2.0938 z"
       id="path329"
       inkscape:connector-curvature="0"
       style="opacity:0.5;fill:url(#linearGradient1314);fill-opacity:1" />
    <rect
       transform="scale(-1,1)"
       rx="1.5"
       ry="1.5"
       height="12"
       width="24"
       y="56"
       x="-80"
       id="rect331"
       style="fill:url(#linearGradient1314);fill-opacity:1" />
    <path
       d="m 78.5,56 c 0.78986,0 1.4382,0.60156 1.5,1.375 -0.49595,-0.26287 -1.1986,-0.23748 -1.375,-0.09375 0.06605,-0.89457 -0.91623,-1.1897 -1.5312,-0.75 -0.72997,-0.1202 -1.5028,-0.6548 -2.0312,0.09375 -0.9557,0.08592 -1.9032,-0.16836 -2.8438,-0.21875 -0.70222,0.27893 -1.4991,0.12458 -2.0938,0.5 0.39536,0.2309 0.92376,1.4978 0.0625,1.4062 -0.38541,-0.72225 -1.6109,-0.753 -1.4375,-1.6875 -0.64261,-0.77069 -1.6816,-0.0602 -2.25,0.4375 -0.37549,0.44581 -0.77461,0.38455 -0.53125,-0.25 -0.48123,-0.8993 -1.6501,-0.47792 -2.4688,-0.5 -1.1623,0.11016 -2.3817,0.36827 -3.5312,0.03125 -1.2249,-0.15037 -2.2016,0.66839 -3.2188,0.9375 -0.21756,0.10332 -0.49618,0.15264 -0.75,0.15625 0.032,-0.802 0.69,-1.437 1.5,-1.437 h 21 z"
       id="path333"
       inkscape:connector-curvature="0"
       style="opacity:0.3;fill:url(#linearGradient1314);fill-opacity:1" />
    <path
       d="m 80,60.656 v 3.625 c -0.25078,-0.26974 -0.52319,-0.53156 -0.75,-0.8125 0.944,-0.833 -0.427,-1.341 -1.125,-1.468 -0.343,-0.908 1.023,-1.042 1.875,-1.344 z m -24,3.125 c 0.2403,0.2015 0.45664,0.6699 0.71875,0.9375 0.41498,0.9317 0.39667,2.2292 1.75,2.3438 1.2066,0.83329 2.5108,0.10497 3.75,-0.1875 1.2764,0.39639 2.2934,-0.76032 3.5,-0.90625 0.93115,0.13843 1.5584,1.1061 2.4688,1.4062 1.1321,0.51859 2.3259,-0.31198 3.5,0.03125 1.3884,0.36368 2.8077,0.15449 4.2188,0.0625 0.922,0.114 1.749,-0.736 2.655,-0.218 0.195,0.262 0.447,0.435 0.719,0.531 -0.227,0.138 -0.495,0.219 -0.781,0.219 h -21 c -0.831,0 -1.5,-0.669 -1.5,-1.5 v -2.7188 z"
       id="path335"
       inkscape:connector-curvature="0"
       style="opacity:0.3;fill:url(#linearGradient1314);fill-opacity:1" />
    <path
       d="m 104.5,27.406 v 13.188 h -21 c -1.1574,0 -2.0938,-0.93637 -2.0938,-2.0938 v -9 c 0,-1.1574 0.93637,-2.0938 2.0938,-2.0938 z"
       id="path337"
       inkscape:connector-curvature="0"
       style="opacity:0.5;fill:url(#linearGradient1314);fill-opacity:1" />
    <rect
       transform="scale(-1,1)"
       rx="1.5"
       ry="1.5"
       height="12"
       width="24"
       y="28"
       x="-106"
       id="rect339"
       style="fill:url(#linearGradient1314);fill-opacity:1" />
    <path
       d="m 95.875,28 c 0,0 -2.6276,0.5759 -3.9375,0.8125 -1.964,0.0654 -3.9499,-0.38518 -5.9062,-0.0625 -0.93643,0.49398 -1.8179,0.7228 -2.875,0.84375 -0.332,0.306 -0.732,0.889 -1.156,1.156 v -1.25 c 0,-0.831 0.669,-1.5 1.5,-1.5 h 12.375 z"
       id="path341"
       inkscape:connector-curvature="0"
       style="opacity:0.3;fill:url(#linearGradient1314);fill-opacity:1" />
    <path
       d="M 83.5,40 C 82.669,40 82,39.331 82,38.5 V 37 c 0.63233,0.24671 1.1657,1.5606 1.8125,1.875 1.0009,0.68391 2.0449,-0.2579 3,-0.5625 0.75684,0.35133 1.7511,0.79559 2.7188,0.78125 14.389,-4.321 28.829,0.906 -6.031,0.906 z"
       id="path343"
       inkscape:connector-curvature="0"
       style="opacity:0.3;fill:url(#linearGradient1314);fill-opacity:1" />
    <path
       d="m 52.5,83.406 c 1.1574,0 2.0938,0.93637 2.0938,2.0938 v 9 h -25.188 v -9 c 0,-1.1574 0.93637,-2.0938 2.0938,-2.0938 z"
       id="path345"
       inkscape:connector-curvature="0"
       style="opacity:0.5;fill:url(#linearGradient1314);fill-opacity:1" />
    <rect
       transform="scale(-1,1)"
       rx="1.5"
       ry="1.5"
       height="12"
       width="24"
       y="84"
       x="-54"
       id="rect347"
       style="fill:url(#linearGradient1314);fill-opacity:1" />
    <path
       d="m 49.719,84 c -0.63601,0.94092 -1.8157,1.2641 -2.5938,0.25 -0.11295,-0.09197 -0.24712,-0.16592 -0.375,-0.25 z m -5.8438,0 c -1.2013,0.61919 -2.6276,0.5759 -3.9375,0.8125 -1.964,0.0654 -3.9499,-0.38518 -5.9062,-0.0625 -0.93643,0.49398 -1.8179,0.7228 -2.875,0.84375 -0.332,0.306 -0.732,0.889 -1.156,1.156 v -1.25 c 0,-0.831 0.669,-1.5 1.5,-1.5 h 12.375 z m 10.125,2.781 v 1.3125 c -0.68465,0.01896 -1.5322,0.49786 -1.8438,0.28125 -0.104,-1.215 1.057,-1.264 1.844,-1.594 z"
       id="path349"
       inkscape:connector-curvature="0"
       style="opacity:0.3;fill:url(#linearGradient1314);fill-opacity:1" />
    <g
       id="g395"
       style="opacity:0.3;fill:url(#linearGradient1314);fill-opacity:1">
      <path
         d="m 13.379,45.184 a 1.2923,0.79816 0 1 1 -2.5845,0 1.2923,0.79816 0 1 1 2.5845,0 z"
         id="path351"
         inkscape:connector-curvature="0"
         style="fill:url(#linearGradient1314);fill-opacity:1" />
      <path
         d="m 35.195,64.644 a 0.76016,0.4941 0 1 1 -1.5203,0 0.76016,0.4941 0 1 1 1.5203,0 z"
         id="path353"
         inkscape:connector-curvature="0"
         style="fill:url(#linearGradient1314);fill-opacity:1" />
      <path
         d="m 41.809,62.857 a 1.5203,0.91219 0 1 1 -3.0406,0 1.5203,0.91219 0 1 1 3.0406,0 z"
         id="path355"
         inkscape:connector-curvature="0"
         style="fill:url(#linearGradient1314);fill-opacity:1" />
      <path
         d="m 52.451,60.729 a 1.0642,0.45609 0 1 1 -2.1284,0 1.0642,0.45609 0 1 1 2.1284,0 z"
         id="path357"
         inkscape:connector-curvature="0"
         style="fill:url(#linearGradient1314);fill-opacity:1" />
      <path
         d="m 60.356,63.085 a 1.17825,0.60821581 0 1 1 -2.3565,0 1.17825,0.60821581 0 1 1 2.3565,0 z"
         id="path359"
         inkscape:connector-curvature="0"
         style="fill:url(#linearGradient1314);fill-opacity:1" />
      <path
         d="m 70.999,60.615 a 1.2543,0.72215 0 1 1 -2.5085,0 1.2543,0.72215 0 1 1 2.5085,0 z"
         id="path361"
         inkscape:connector-curvature="0"
         style="fill:url(#linearGradient1314);fill-opacity:1" />
      <path
         d="m 7.6016,73.081 a 1.0642,0.41809 0 0 1 -2.1284,0 1.0642,0.41809 0 1 1 2.1284,0 z"
         id="path363"
         inkscape:connector-curvature="0"
         style="fill:url(#linearGradient1314);fill-opacity:1" />
      <path
         d="m 13.987,77.148 a 1.3683,0.9882 0 0 1 -2.7366,0 1.3683,0.9882 0 1 1 2.7366,0 z"
         id="path365"
         inkscape:connector-curvature="0"
         style="fill:url(#linearGradient1314);fill-opacity:1" />
      <path
         d="m 7.7536,77.794 a 1.2923,0.57012 0 1 1 -2.5845,0 1.2923,0.57012 0 1 1 2.5845,0 z"
         id="path367"
         inkscape:connector-curvature="0"
         style="fill:url(#linearGradient1314);fill-opacity:1" />
      <path
         d="m 40.06,87.752 a 1.0262,0.41809 0 1 1 -2.0524,0 1.0262,0.41809 0 1 1 2.0524,0 z"
         id="path369"
         inkscape:connector-curvature="0"
         style="fill:url(#linearGradient1314);fill-opacity:1" />
      <path
         d="m 45.077,86.574 a 1.17825,0.60821581 0 1 1 -2.3565,0 1.17825,0.60821581 0 1 1 2.3565,0 z"
         id="path371"
         inkscape:connector-curvature="0"
         style="fill:url(#linearGradient1314);fill-opacity:1" />
      <path
         d="m 35.575,32.565 a 1.0262,0.34207 0 1 1 -2.0524,0 1.0262,0.34207 0 1 1 2.0524,0 z"
         id="path373"
         inkscape:connector-curvature="0"
         style="fill:url(#linearGradient1314);fill-opacity:1" />
      <path
         d="m 44.241,35.834 a 1.2543,0.64613 0 1 1 -2.5085,0 1.2543,0.64613 0 1 1 2.5085,0 z"
         id="path375"
         inkscape:connector-curvature="0"
         style="fill:url(#linearGradient1314);fill-opacity:1" />
      <path
         d="m 47.586,35.111 a 1.0642,0.60813 0 1 1 -2.1284,0 1.0642,0.60813 0 1 1 2.1284,0 z"
         id="path377"
         inkscape:connector-curvature="0"
         style="fill:url(#linearGradient1314);fill-opacity:1" />
      <path
         d="m 50.778,31.805 a 1.5203,0.79816 0 1 1 -3.0406,0 1.5203,0.79816 0 1 1 3.0406,0 z"
         id="path379"
         inkscape:connector-curvature="0"
         style="fill:url(#linearGradient1314);fill-opacity:1" />
      <path
         d="m 52.603,17.78 a 2.0144,0.76016 0 1 1 -4.0288,0 2.0144,0.76016 0 1 1 4.0288,0 z"
         id="path381"
         inkscape:connector-curvature="0"
         style="fill:url(#linearGradient1314);fill-opacity:1" />
      <path
         d="m 51.843,19.87 a 1.0262,0.19004 0 1 1 -2.0524,0 1.0262,0.19004 0 1 1 2.0524,0 z"
         id="path383"
         inkscape:connector-curvature="0"
         style="fill:url(#linearGradient1314);fill-opacity:1" />
      <path
         d="m 61.649,22.873 a 1.10225,0.53217414 0 0 1 -2.2045,0 1.10225,0.53217414 0 1 1 2.2045,0 z"
         id="path385"
         inkscape:connector-curvature="0"
         style="fill:url(#linearGradient1314);fill-opacity:1" />
      <path
         d="m 61.345,9.1521 a 0.79816,0.34207 0 1 1 -1.5963,0 0.79816,0.34207 0 1 1 1.5963,0 z"
         id="path387"
         inkscape:connector-curvature="0"
         style="fill:url(#linearGradient1314);fill-opacity:1" />
      <path
         d="m 12.391,21.011 a 1.2543,0.72215 0 1 1 -2.5085,0 1.2543,0.72215 0 1 1 2.5085,0 z"
         id="path389"
         inkscape:connector-curvature="0"
         style="fill:url(#linearGradient1314);fill-opacity:1" />
      <path
         d="m 87.114,33.933 a 0.83617,0.34207 0 1 1 -1.6723,0 0.83617,0.34207 0 1 1 1.6723,0 z"
         id="path391"
         inkscape:connector-curvature="0"
         style="fill:url(#linearGradient1314);fill-opacity:1" />
      <path
         d="m 88.026,36.176 a 1.9004,0.53211 0 1 1 -3.8008,0 1.9004,0.53211 0 1 1 3.8008,0 z"
         id="path393"
         inkscape:connector-curvature="0"
         style="fill:url(#linearGradient1314);fill-opacity:1" />
    </g>
    <g
       id="g423"
       style="opacity:0.1;fill:url(#linearGradient1314);fill-opacity:1">
      <path
         d="m 58.152,21.923 a 1.2163,0.72215 0 1 1 -2.4325,0 1.2163,0.72215 0 1 1 2.4325,0 z"
         id="path397"
         inkscape:connector-curvature="0"
         style="fill:url(#linearGradient1314);fill-opacity:1" />
      <path
         d="m 76.776,8.24 a 1.6344,0.64615 0 1 1 -3.2687,0 1.6344,0.64615 0 1 1 3.2687,0 z"
         id="path399"
         inkscape:connector-curvature="0"
         style="fill:url(#linearGradient1314);fill-opacity:1" />
      <path
         d="m 90.079,31.501 a 0.83617,0.41809 0 1 1 -1.6723,0 0.83617,0.41809 0 1 1 1.6723,0 z"
         id="path401"
         inkscape:connector-curvature="0"
         style="fill:url(#linearGradient1314);fill-opacity:1" />
      <path
         d="m 35.347,36.974 a 1.2543,0.57012 0 1 1 -2.5085,0 1.2543,0.57012 0 1 1 2.5085,0 z"
         id="path403"
         inkscape:connector-curvature="0"
         style="fill:url(#linearGradient1314);fill-opacity:1" />
      <path
         d="m 9.0459,45.792 a 0.64615,0.26606 0 1 1 -1.2923,0 0.64615,0.26606 0 1 1 1.2923,0 z"
         id="path405"
         inkscape:connector-curvature="0"
         style="fill:url(#linearGradient1314);fill-opacity:1" />
      <path
         d="m 13.987,50.923 a 1.4063,0.83617 0 1 1 -2.8126,0 1.4063,0.83617 0 1 1 2.8126,0 z"
         id="path407"
         inkscape:connector-curvature="0"
         style="fill:url(#linearGradient1314);fill-opacity:1" />
      <path
         d="m 36.183,59.018 a 0.64615,0.26606 0 1 1 -1.2923,0 0.64615,0.26606 0 1 1 1.2923,0 z"
         id="path409"
         inkscape:connector-curvature="0"
         style="fill:url(#linearGradient1314);fill-opacity:1" />
      <path
         d="m 52.299,64.035 a 1.14025,0.570185 0 1 1 -2.2805,0 1.14025,0.570185 0 1 1 2.2805,0 z"
         id="path411"
         inkscape:connector-curvature="0"
         style="fill:url(#linearGradient1314);fill-opacity:1" />
      <path
         d="m 60.813,59.36 a 1.3683,0.60813 0 0 1 -2.7366,0 1.3683,0.60813 0 1 1 2.7366,0 z"
         id="path413"
         inkscape:connector-curvature="0"
         style="fill:url(#linearGradient1314);fill-opacity:1" />
      <path
         d="m 63.397,61.071 a 0.9882,0.4941 0 1 1 -1.9764,0 0.9882,0.4941 0 1 1 1.9764,0 z"
         id="path415"
         inkscape:connector-curvature="0"
         style="fill:url(#linearGradient1314);fill-opacity:1" />
      <path
         d="m 12.467,73.423 a 1.14025,0.45615 0 0 1 -2.2805,0 1.14025,0.45615 0 1 1 2.2805,0 z"
         id="path417"
         inkscape:connector-curvature="0"
         style="fill:url(#linearGradient1314);fill-opacity:1" />
      <path
         d="m 15.507,74.526 a 0.9502,0.41809 0 1 1 -1.9004,0 0.9502,0.41809 0 1 1 1.9004,0 z"
         id="path419"
         inkscape:connector-curvature="0"
         style="fill:url(#linearGradient1314);fill-opacity:1" />
      <path
         d="m 49.106,87.144 a 0.8742,0.49411 0 1 1 -1.7484,0 0.8742,0.49411 0 1 1 1.7484,0 z"
         id="path421"
         inkscape:connector-curvature="0"
         style="fill:url(#linearGradient1314);fill-opacity:1" />
    </g>
    <path
       d="m 19.5,41.406 c -1.1574,0 -2.0938,0.93637 -2.0938,2.0938 v 9 c 0,1.1574 0.93637,2.0938 2.0938,2.0938 h 21 c 1.1574,0 2.0938,-0.93637 2.0938,-2.0938 v -9 c 0,-1.1574 -0.93637,-2.0938 -2.0938,-2.0938 z"
       transform="translate(0,-28)"
       id="path425"
       inkscape:connector-curvature="0"
       style="opacity:0.5;fill:url(#linearGradient1314);fill-opacity:1" />
    <rect
       rx="1.5"
       ry="1.5"
       height="12"
       width="24"
       y="14"
       x="18"
       id="rect427"
       style="fill:url(#linearGradient1314);fill-opacity:1" />
    <path
       d="M 19.5,14 C 18.669,14 18,14.669 18,15.5 v 0.28125 c 0.38313,-0.53322 0.78347,-1.0024 1.4375,-0.53125 0.77081,-0.497 1.6632,-0.64878 2.5625,-0.59375 1.0898,-0.10845 2.5145,-0.39278 3.0625,0.875 0.25396,0.41335 0.3875,1.019 0.5,0.21875 0.36482,-1.0175 1.5194,-1.0899 2.4375,-1.0625 1.8328,-0.05682 3.6669,-0.1806 5.5,-0.1875 1.2747,0.03031 2.5757,-0.0776 3.8125,0.3125 0.87126,0.58062 1.8456,-0.53133 2.5938,0.03125 0.05472,0.2652 -0.64444,1.5141 -0.1875,1.2812 0.26455,-1.1156 1.8637,-1.276 2.2188,-0.125 0.02133,0.012 0.04131,0.02072 0.0625,0.03125 v -0.531 c 0,-0.831 -0.669,-1.5 -1.5,-1.5 h -21 z"
       id="path429"
       inkscape:connector-curvature="0"
       style="opacity:0.3;fill:url(#linearGradient1314);fill-opacity:1" />
    <path
       d="m 42,19.812 c -0.20071,0.02776 -0.41188,0.14152 -0.59375,0.375 -0.88527,-0.3707 -0.84412,0.69148 -0.53125,1.1875 0.14917,0.50735 0.64387,0.66599 1.125,0.84375 v -2.406 z M 18,22.906 V 24.5 c 0,0.831 0.669,1.5 1.5,1.5 h 21 c 0.831,0 1.5,-0.669 1.5,-1.5 v -0.03125 c -0.46304,0.07658 -0.95921,0.14408 -1.25,0.375 -1.3167,0.60047 -2.6001,-0.2783 -3.9375,-0.15625 -1.1662,0.1405 -2.2749,0.3956 -3.4375,0.53125 -1.4142,0.05498 -2.8499,-0.18702 -4.25,0.125 -1.4008,0.55802 -2.3313,-0.46982 -3.0312,-1.5 -1.3681,-0.73505 -0.99136,1.8353 -2.4375,1.2812 -1.291,-0.422 -2.612,0.004 -3.906,-0.094 -0.806,-0.45 -1.216,-1.346 -1.75,-2.125 z"
       id="path431"
       inkscape:connector-curvature="0"
       style="opacity:0.3;fill:url(#linearGradient1314);fill-opacity:1" />
    <path
       d="m 17.406,48 v 4.5003 c 0,1.1574 0.93637,2.0938 2.0938,2.0938 h 21 c 1.1574,0 2.0938,-0.93637 2.0938,-2.0938 v -4.5 z"
       transform="translate(12,-42)"
       id="path433"
       inkscape:connector-curvature="0"
       style="opacity:0.5;fill:url(#linearGradient1314);fill-opacity:1" />
    <rect
       rx="1.5"
       ry="1.5"
       height="12"
       width="24"
       y="0"
       x="30"
       id="rect435"
       style="fill:url(#linearGradient1314);fill-opacity:1" />
    <path
       d="m 53.938,6 c -0.453,0.0629 -0.723,0.3889 -0.563,0.9375 -0.14,0.5182 0.212,0.6468 0.625,0.75 V 6 C 53.981,6.0017 53.956,5.9974 53.938,6 Z M 30,7.25 v 3.25 c 0,0.831 0.669,1.5 1.5,1.5 h 21 C 53.331,12 54,11.331 54,10.5 V 9.625 c -0.26507,0.21539 -0.4878,0.46913 -0.5625,0.75 -0.57575,1.2809 -2.0687,0.6229 -3.1562,0.8125 -1.2502,0.29507 -2.5413,0.18223 -3.8125,0.21875 -1.1264,0.11033 -1.358,-0.96089 -1.375,-1.7812 -0.80403,0.070726 -0.81852,2.0299 -1.7188,1.0938 -0.7057,-0.69368 -0.29283,0.08315 -0.21875,0.53125 -0.57826,0.54987 -1.7083,0.007 -2.4688,0.46875 -0.99899,0.56037 -1.9195,0.11082 -2.5,-0.8125 -0.55793,-0.08221 -0.83568,1.0574 -1.6562,0.8125 -1.1724,0.04933 -2.3306,-0.06061 -3.5,-0.09375 -1.213,0.477 -2.415,-0.335 -2.406,-1.6562 -0.567,-0.9888 0.806,-1.3783 0.781,-2.125 -0.467,-0.1181 -1.01,-0.2639 -1.406,-0.5938 z"
       id="path437"
       inkscape:connector-curvature="0"
       style="opacity:0.3;fill:url(#linearGradient1314);fill-opacity:1" />
    <path
       d="m 71.5,41.406 c -1.1574,0 -2.0938,0.93637 -2.0938,2.0938 v 9 c 0,1.1574 0.93637,2.0938 2.0938,2.0938 h 21 v -13.188 z"
       id="path439"
       inkscape:connector-curvature="0"
       style="opacity:0.5;fill:url(#linearGradient1314);fill-opacity:1" />
    <rect
       rx="1.5"
       ry="1.5"
       height="12"
       width="24"
       y="42"
       x="70"
       id="rect441"
       style="fill:url(#linearGradient1314);fill-opacity:1" />
    <path
       d="m 73.031,42 c 0.42908,0.3739 0.9604,0.64797 1.4688,0.90625 1.0233,-0.03516 1.9699,-0.78397 3,-0.1875 1.0819,0.09427 2.2961,-0.44293 3.25,0.28125 0.65929,0.74519 1.2573,-0.79964 2.1875,-0.40625 1.334,0.21193 2.6928,0.11051 4.0312,0 1.2039,-0.07328 2.6119,-0.12324 3.4375,0.9375 0.102,0.338 2.092,-1.531 2.092,-1.531 h -19.47 z m -1.843,0.03125 c -0.685,0.14 -1.188,0.742 -1.188,1.469 v 1.75 c 0.259,-0.0649 0.497,-0.1032 0.594,-0.0938 -0.36,-0.9824 -0.555,-2.1861 0.5,-2.7812 0.045,-0.07688 0.059,-0.22054 0.094,-0.34375 z"
       id="path443"
       inkscape:connector-curvature="0"
       style="opacity:0.3;fill:url(#linearGradient1314);fill-opacity:1" />
    <path
       d="m 70,49.25 v 3.25 c 0,0.831 0.669,1.5 1.5,1.5 h 21 c 0,0 -0.1066,-1.1209 -2.2187,-0.8125 -1.2502,0.29507 -2.5413,0.18223 -3.8125,0.21875 -1.1264,0.11033 -1.358,-0.96089 -1.375,-1.7812 -0.80403,0.07073 -0.81852,2.0299 -1.7188,1.0938 -0.7057,-0.69368 -0.29283,0.08315 -0.21875,0.53125 -0.57826,0.54987 -1.7083,0.007 -2.4688,0.46875 -0.99899,0.56037 -1.9195,0.11082 -2.5,-0.8125 -0.55793,-0.08221 -0.83568,1.0574 -1.6562,0.8125 -1.1724,0.04933 -2.3306,-0.06061 -3.5,-0.09375 -1.213,0.477 -2.415,-0.335 -2.406,-1.6562 -0.567,-0.9888 0.806,-1.3783 0.781,-2.125 -0.467,-0.1181 -1.01,-0.2639 -1.406,-0.5938 z"
       id="path445"
       inkscape:connector-curvature="0"
       style="opacity:0.3;fill:url(#linearGradient1314);fill-opacity:1" />
    <path
       d="m 66.5,69.406 c 1.1574,0 2.0938,0.93637 2.0938,2.0938 v 9 c 0,1.1574 -0.93637,2.0938 -2.0938,2.0938 h -21 c -1.1574,0 -2.0938,-0.93637 -2.0938,-2.0938 v -9 c 0,-1.1574 0.93637,-2.0938 2.0938,-2.0938 z"
       id="path447"
       inkscape:connector-curvature="0"
       style="opacity:0.5;fill:url(#linearGradient1314);fill-opacity:1" />
    <rect
       transform="scale(-1,1)"
       rx="1.5"
       ry="1.5"
       height="12"
       width="24"
       y="70"
       x="-68"
       id="rect449"
       style="fill:url(#linearGradient1314);fill-opacity:1" />
    <path
       d="m 66.5,70 c 0.831,0 1.5,0.669 1.5,1.5 v 0.28125 c -0.383,-0.533 -0.783,-1.002 -1.438,-0.531 -0.77,-0.497 -1.663,-0.649 -2.562,-0.594 -1.09,-0.108 -2.514,-0.393 -3.062,0.875 -0.254,0.414 -0.388,1.019 -0.5,0.219 -0.365,-1.018 -1.52,-1.09 -2.438,-1.062 -1.833,-0.057 -3.667,-0.181 -5.5,-0.188 -1.2747,0.03031 -2.5757,-0.0776 -3.8125,0.3125 -0.87126,0.58062 -1.8456,-0.53133 -2.5938,0.03125 -0.05472,0.2652 0.64444,1.5141 0.1875,1.2812 -0.26455,-1.1156 -1.8637,-1.276 -2.2188,-0.125 -0.02133,0.012 -0.04131,0.02072 -0.0625,0.03125 v -0.531 c 0,-0.831 0.669,-1.5 1.5,-1.5 h 21 z"
       id="path451"
       inkscape:connector-curvature="0"
       style="opacity:0.3;fill:url(#linearGradient1314);fill-opacity:1" />
    <g
       id="g473"
       style="opacity:0.3;fill:url(#linearGradient1314);fill-opacity:1">
      <path
         d="m 44,75.812 c 0.20071,0.02776 0.41188,0.14152 0.59375,0.375 0.88527,-0.3707 0.84412,0.69148 0.53125,1.1875 -0.14917,0.50735 -0.64387,0.66599 -1.125,0.84375 v -2.406 z m 24,3.094 V 80.5 c 0,0.831 -0.669,1.5 -1.5,1.5 h -21 C 44.669,82 44,81.331 44,80.5 v -0.03125 c 0.46304,0.07658 0.95921,0.14408 1.25,0.375 1.3167,0.60047 2.6001,-0.2783 3.9375,-0.15625 1.1662,0.1405 2.2749,0.3956 3.4375,0.53125 1.4142,0.05498 2.8499,-0.18702 4.25,0.125 1.4008,0.55802 2.3313,-0.46982 3.0312,-1.5 1.3681,-0.73505 0.99136,1.8353 2.4375,1.2812 1.291,-0.422 2.612,0.004 3.906,-0.094 0.806,-0.45 1.216,-1.346 1.75,-2.125 z"
         id="path453"
         inkscape:connector-curvature="0"
         style="fill:url(#linearGradient1314);fill-opacity:1" />
      <path
         d="m 35.156,22.741 a 1.5006,0.6967 0 0 1 -3.0011,0 1.5006,0.6967 0 1 1 3.0011,0 z"
         id="path455"
         inkscape:connector-curvature="0"
         style="fill:url(#linearGradient1314);fill-opacity:1" />
      <path
         d="m 37.835,20.115 a 0.53591,0.32155 0 1 1 -1.0718,0 0.53591,0.32155 0 1 1 1.0718,0 z"
         id="path457"
         inkscape:connector-curvature="0"
         style="fill:url(#linearGradient1314);fill-opacity:1" />
      <path
         d="m 21.329,21.884 a 0.75027,0.48232 0 1 1 -1.5005,0 0.75027,0.48232 0 1 1 1.5005,0 z"
         id="path459"
         inkscape:connector-curvature="0"
         style="fill:url(#linearGradient1314);fill-opacity:1" />
      <path
         d="m 35.584,10.04 a 0.91105,0.53591 0 1 1 -1.8221,0 0.91105,0.53591 0 1 1 1.8221,0 z"
         id="path461"
         inkscape:connector-curvature="0"
         style="fill:url(#linearGradient1314);fill-opacity:1" />
      <path
         d="m 74.92,45.732 a 1.3398,0.85746 0 1 1 -2.6796,0 1.3398,0.85746 0 1 1 2.6796,0 z"
         id="path463"
         inkscape:connector-curvature="0"
         style="fill:url(#linearGradient1314);fill-opacity:1" />
      <path
         d="m 78.136,50.072 a 0.6967,0.48233 0 1 1 -1.3934,0 0.6967,0.48233 0 1 1 1.3934,0 z"
         id="path465"
         inkscape:connector-curvature="0"
         style="fill:url(#linearGradient1314);fill-opacity:1" />
      <path
         d="m 54.127,78.529 a 1.7685,0.85746 0 1 1 -3.537,0 1.7685,0.85746 0 1 1 3.537,0 z"
         id="path467"
         inkscape:connector-curvature="0"
         style="fill:url(#linearGradient1314);fill-opacity:1" />
      <path
         d="m 64.095,75.475 a 0.6967,0.37515 0 1 1 -1.3934,0 0.6967,0.37515 0 1 1 1.3934,0 z"
         id="path469"
         inkscape:connector-curvature="0"
         style="fill:url(#linearGradient1314);fill-opacity:1" />
      <path
         d="m 84.459,46.268 a 1.01825,0.42879106 0 0 1 -2.0365,0 1.01825,0.42879106 0 1 1 2.0365,0 z"
         id="path471"
         inkscape:connector-curvature="0"
         style="fill:url(#linearGradient1314);fill-opacity:1" />
    </g>
    <g
       id="g483"
       style="opacity:0.1;fill:url(#linearGradient1314);fill-opacity:1">
      <path
         d="m 32.369,16.525 a 1.1254,0.5895 0 1 1 -2.2508,0 1.1254,0.5895 0 1 1 2.2508,0 z"
         id="path475"
         inkscape:connector-curvature="0"
         style="fill:url(#linearGradient1314);fill-opacity:1" />
      <path
         d="m 75.456,51.68 a 1.3398,0.69668 0 1 1 -2.6796,0 1.3398,0.69668 0 1 1 2.6796,0 z"
         id="path477"
         inkscape:connector-curvature="0"
         style="fill:url(#linearGradient1314);fill-opacity:1" />
      <path
         d="m 81.458,47.768 a 2.09005,1.0718256 0 1 1 -4.1801,0 2.09005,1.0718256 0 1 1 4.1801,0 z"
         id="path479"
         inkscape:connector-curvature="0"
         style="fill:url(#linearGradient1314);fill-opacity:1" />
      <path
         d="m 60.022,74.188 a 1.6613,0.91105 0 0 1 -3.3226,0 1.6613,0.91105 0 1 1 3.3226,0 z"
         id="path481"
         inkscape:connector-curvature="0"
         style="fill:url(#linearGradient1314);fill-opacity:1" />
    </g>
  </g>
  <rect
     transform="matrix(0,-1,-1,0,0,0)"
     display="none"
     rx="6"
     ry="6"
     height="84"
     width="84"
     y="-200"
     x="-90"
     fill="url(#cb)"
     id="rect487" />
  <path
     opacity=".2"
     d="m12 90c-3.324 0-6-2.676-6-6v-72c0-0.33472 0.04135-0.6507 0.09375-0.96875 0.0487-0.2956 0.09704-0.59692 0.1875-0.875 0.0099-0.03 0.0209-0.063 0.0313-0.094 0.0989-0.2873 0.2349-0.547 0.375-0.812 0.1446-0.2735 0.3156-0.5356 0.5-0.7812 0.1844-0.2457 0.3738-0.4735 0.5937-0.6876 0.44-0.428 0.943-0.8145 1.5-1.0937 0.2786-0.1396 0.5735-0.2469 0.8748-0.3437-0.256 0.1002-0.4865 0.2362-0.7185 0.375-0.00741 0.0044-0.023866-0.0045-0.03125 0-0.031933 0.0193-0.062293 0.04251-0.09375 0.0625-0.1204 0.0767-0.23102 0.16351-0.34375 0.25-0.10617 0.0808-0.21328 0.16111-0.3125 0.25-0.1779 0.1614-0.3474 0.3453-0.5 0.5312-0.1075 0.1303-0.2183 0.2653-0.3124 0.4063-0.0251 0.0383-0.0385 0.0858-0.0626 0.125-0.0647 0.103-0.1302 0.2045-0.1874 0.3124-0.1011 0.1948-0.2057 0.4158-0.2813 0.625-0.008 0.0219-0.0236 0.0406-0.0313 0.0626-0.0318 0.0919-0.0358 0.1868-0.0624 0.2812-0.0304 0.1066-0.0704 0.203-0.0938 0.3125-0.0729 0.3415-0.125 0.6985-0.125 1.0625v72c0 2.7818 2.2182 5 5 5h72c2.7818 0 5-2.2182 5-5v-72c0-0.364-0.052-0.721-0.125-1.0625-0.044-0.2069-0.088-0.3977-0.156-0.5937-0.008-0.022-0.024-0.0407-0.031-0.0626-0.063-0.1737-0.139-0.3674-0.219-0.5312-0.042-0.0828-0.079-0.17-0.125-0.25-0.055-0.0972-0.127-0.1884-0.188-0.2812-0.094-0.141-0.205-0.276-0.312-0.4063-0.143-0.1745-0.303-0.347-0.469-0.5-0.011-0.0102-0.02-0.0211-0.031-0.0313-0.139-0.1255-0.285-0.2344-0.438-0.3437-0.102-0.0731-0.204-0.1534-0.312-0.2187-0.0074-0.0045-0.02384 0.0044-0.03125 0-0.23204-0.13873-0.46255-0.27478-0.71875-0.375 0.30153 0.0968 0.59646 0.20414 0.875 0.34375 0.55709 0.27922 1.0601 0.66569 1.5 1.0938 0.21997 0.21403 0.40937 0.44186 0.59375 0.6875s0.35541 0.50774 0.5 0.78125c0.14012 0.26505 0.27614 0.52473 0.375 0.8125 0.01041 0.03078 0.02133 0.06274 0.03125 0.09375 0.09046 0.27808 0.1388 0.5794 0.1875 0.875 0.053 0.318 0.094 0.634 0.094 0.969v72c0 3.324-2.676 6-6 6h-72z"
     fill="url(#bm)"
     id="path489" />
  <rect
     transform="matrix(0,-1,-1,0,0,0)"
     rx="6"
     ry="6"
     height="84"
     width="84"
     y="-90"
     x="-90"
     id="rect491"
     style="opacity:0.15;fill:url(#ca)" />
  <rect
     clip-path="url(#bp)"
     rx="12"
     ry="12"
     height="66"
     width="66"
     y="15"
     x="15"
     id="rect493"
     style="opacity:0.1;fill:url(#bl);stroke:#ffffff;stroke-width:0.5;stroke-linecap:round;filter:url(#bn)"
     transform="translate(-103.72881,26.440678)" />
  <path
     opacity=".4"
     d="m12 6c-3.324 0-6 2.676-6 6v72c0 0.33472 0.04135 0.6507 0.09375 0.96875 0.0487 0.2956 0.09704 0.59692 0.1875 0.875 0.00988 0.03038 0.020892 0.0636 0.03125 0.09375 0.098865 0.28777 0.23488 0.54745 0.375 0.8125 0.14459 0.27351 0.31562 0.53562 0.5 0.78125 0.18438 0.24564 0.37378 0.47347 0.59375 0.6875 0.43995 0.42806 0.94291 0.81453 1.5 1.0938 0.27854 0.13961 0.57347 0.24695 0.875 0.34375-0.2562-0.10022-0.48671-0.23627-0.71875-0.375-0.00741-0.0044-0.023866 0.0045-0.03125 0-0.0319-0.019-0.0622-0.042-0.0937-0.062-0.1204-0.077-0.231-0.164-0.3437-0.25-0.1062-0.081-0.2133-0.161-0.3126-0.25-0.1778-0.162-0.3473-0.346-0.4999-0.531-0.1075-0.131-0.2183-0.266-0.3124-0.407-0.0251-0.038-0.0385-0.086-0.0626-0.125-0.0647-0.103-0.1302-0.204-0.1874-0.312-0.1011-0.195-0.2057-0.416-0.2813-0.625-0.008-0.022-0.0236-0.041-0.0313-0.063-0.0318-0.092-0.0358-0.187-0.0624-0.281-0.0304-0.107-0.0704-0.203-0.0938-0.313-0.0729-0.341-0.125-0.698-0.125-1.062v-72c0-2.782 2.2182-5 5-5h72c2.7818 0 5 2.2182 5 5v72c0 0.3643-0.05212 0.72099-0.125 1.0625-0.04415 0.20689-0.08838 0.39766-0.15625 0.59375-0.0077 0.02195-0.0233 0.04069-0.03125 0.0625-0.06274 0.17374-0.13838 0.36745-0.21875 0.53125-0.04158 0.0828-0.07904 0.16995-0.125 0.25-0.0546 0.09721-0.12677 0.18835-0.1875 0.28125-0.09411 0.14096-0.20492 0.276-0.3125 0.40625-0.14317 0.17445-0.30314 0.347-0.46875 0.5-0.01117 0.0102-0.01998 0.02115-0.03125 0.03125-0.13839 0.12556-0.28509 0.23444-0.4375 0.34375-0.10257 0.07315-0.20432 0.15336-0.3125 0.21875-0.0074 0.0045-0.02384-0.0044-0.03125 0-0.23204 0.13873-0.46255 0.27478-0.71875 0.375 0.30153-0.0968 0.59646-0.20414 0.875-0.34375 0.55709-0.27922 1.0601-0.66569 1.5-1.0938 0.21997-0.21403 0.40937-0.44186 0.59375-0.6875s0.35541-0.50774 0.5-0.78125c0.14012-0.26505 0.27614-0.52473 0.375-0.8125 0.01041-0.03078 0.02133-0.06274 0.03125-0.09375 0.09046-0.27808 0.1388-0.5794 0.1875-0.875 0.053-0.318 0.094-0.634 0.094-0.969v-72c0-3.324-2.676-6-6-6h-72z"
     fill="url(#bq)"
     id="path495" />
</svg>
